<svg width="48" height="44" viewBox="0 0 48 44" fill="none" xmlns="http://www.w3.org/2000/svg">
<path d="M30.512 20.5271C30.496 17.9291 31.706 15.9711 34.15 14.5271C32.783 12.6221 30.716 11.5751 27.99 11.3731C25.409 11.1751 22.585 12.8361 21.551 12.8361C20.459 12.8361 17.961 11.4411 15.994 11.4411C11.937 11.5021 7.625 14.5881 7.625 20.8661C7.625 22.7221 7.974 24.6381 8.671 26.6111C9.603 29.2091 12.963 35.5751 16.468 35.4721C18.301 35.4311 19.598 34.2081 21.982 34.2081C24.297 34.2081 25.495 35.4721 27.539 35.4721C31.076 35.4231 34.115 29.6361 35 27.0301C30.257 24.8551 30.512 20.6601 30.512 20.5271ZM26.396 8.9071C28.381 6.6151 28.201 4.5271 28.142 3.7771C26.388 3.8751 24.359 4.9381 23.204 6.2451C21.931 7.6471 21.184 9.3801 21.344 11.3351C23.239 11.4751 24.97 10.5271 26.396 8.9081V8.9071Z" fill="white"/>
</svg>
