<svg width="184" height="64" viewBox="0 0 184 64" fill="none" xmlns="http://www.w3.org/2000/svg">
<g filter="url(#filter0_dd_2007_10261)">
<rect x="32.91" width="118.58" height="64" fill="#1E1E1E"/>
</g>
<g filter="url(#filter1_d_2007_10261)">
<path d="M0.910034 32C0.910034 14.3269 15.2369 0 32.91 0V64C15.2369 64 0.910034 49.6731 0.910034 32Z" fill="#1E1E1E"/>
</g>
<g filter="url(#filter2_d_2007_10261)">
<path d="M151.48 0C169.153 0 183.48 14.3269 183.48 32C183.48 49.6731 169.153 64 151.48 64V0Z" fill="#1E1E1E"/>
</g>
<path d="M41.422 30.5269C41.406 27.9289 42.616 25.9709 45.06 24.5269C43.693 22.6219 41.626 21.5749 38.9 21.3729C36.319 21.1749 33.495 22.8359 32.461 22.8359C31.369 22.8359 28.871 21.4409 26.904 21.4409C22.847 21.5019 18.535 24.5879 18.535 30.8659C18.535 32.7219 18.884 34.6379 19.581 36.6109C20.513 39.2089 23.873 45.5749 27.378 45.4719C29.211 45.4309 30.508 44.2079 32.892 44.2079C35.207 44.2079 36.405 45.4719 38.449 45.4719C41.986 45.4229 45.025 39.6359 45.91 37.0299C41.167 34.8549 41.422 30.6599 41.422 30.5269ZM37.306 18.9069C39.291 16.6149 39.111 14.5269 39.052 13.7769C37.298 13.8749 35.269 14.9379 34.114 16.2449C32.841 17.6469 32.094 19.3799 32.254 21.3349C34.149 21.4749 35.88 20.5269 37.306 18.9079V18.9069Z" fill="white"/>
<path d="M62.4843 26H59.9173V17.6818H62.598C63.4049 17.6818 64.0954 17.8483 64.6694 18.1814C65.2434 18.5117 65.6834 18.9869 65.9894 19.607C66.2954 20.2244 66.4484 20.9636 66.4484 21.8247C66.4484 22.6911 66.294 23.4371 65.9854 24.0626C65.6767 24.6854 65.2272 25.1647 64.6369 25.5004C64.0466 25.8335 63.3291 26 62.4843 26ZM60.9246 25.1064H62.4193C63.107 25.1064 63.677 24.9738 64.1292 24.7084C64.5814 24.443 64.9185 24.0653 65.1405 23.5752C65.3626 23.0851 65.4736 22.5016 65.4736 21.8247C65.4736 21.1531 65.3639 20.575 65.1446 20.0904C64.9253 19.603 64.5976 19.2293 64.1617 18.9693C63.7258 18.7067 63.1829 18.5754 62.533 18.5754H60.9246V25.1064ZM70.5425 26.13C69.9793 26.13 69.4851 25.9959 69.06 25.7279C68.6376 25.4598 68.3073 25.0848 68.069 24.6028C67.8334 24.1208 67.7156 23.5576 67.7156 22.9132C67.7156 22.2633 67.8334 21.696 68.069 21.2114C68.3073 20.7267 68.6376 20.3503 69.06 20.0822C69.4851 19.8142 69.9793 19.6801 70.5425 19.6801C71.1057 19.6801 71.5985 19.8142 72.0209 20.0822C72.446 20.3503 72.7764 20.7267 73.012 21.2114C73.2502 21.696 73.3694 22.2633 73.3694 22.9132C73.3694 23.5576 73.2502 24.1208 73.012 24.6028C72.7764 25.0848 72.446 25.4598 72.0209 25.7279C71.5985 25.9959 71.1057 26.13 70.5425 26.13ZM70.5425 25.2689C70.9703 25.2689 71.3223 25.1592 71.5985 24.9399C71.8747 24.7206 72.0791 24.4322 72.2118 24.0748C72.3445 23.7174 72.4108 23.3302 72.4108 22.9132C72.4108 22.4962 72.3445 22.1076 72.2118 21.7475C72.0791 21.3874 71.8747 21.0963 71.5985 20.8742C71.3223 20.6522 70.9703 20.5412 70.5425 20.5412C70.1147 20.5412 69.7627 20.6522 69.4865 20.8742C69.2103 21.0963 69.0058 21.3874 68.8732 21.7475C68.7405 22.1076 68.6742 22.4962 68.6742 22.9132C68.6742 23.3302 68.7405 23.7174 68.8732 24.0748C69.0058 24.4322 69.2103 24.7206 69.4865 24.9399C69.7627 25.1592 70.1147 25.2689 70.5425 25.2689ZM76.0338 26L74.133 19.7614H75.1402L76.4887 24.5378H76.5537L77.8859 19.7614H78.9094L80.2254 24.5216H80.2904L81.6388 19.7614H82.6461L80.7453 26H79.803L78.4383 21.2073H78.3408L76.9761 26H76.0338ZM84.8719 22.2471V26H83.9133V19.7614H84.8394V20.7362H84.9206C85.0668 20.4193 85.2889 20.1648 85.5867 19.9726C85.8846 19.7776 86.2691 19.6801 86.7402 19.6801C87.1626 19.6801 87.5322 19.7668 87.849 19.9401C88.1658 20.1107 88.4122 20.3706 88.5882 20.7199C88.7642 21.0665 88.8522 21.5051 88.8522 22.0359V26H87.8937V22.1009C87.8937 21.6108 87.7664 21.229 87.5119 20.9555C87.2574 20.6793 86.9081 20.5412 86.464 20.5412C86.158 20.5412 85.8846 20.6075 85.6436 20.7402C85.4053 20.8729 85.2171 21.0665 85.079 21.321C84.9409 21.5756 84.8719 21.8842 84.8719 22.2471ZM91.5624 17.6818V26H90.6038V17.6818H91.5624ZM95.8524 26.13C95.2892 26.13 94.7951 25.9959 94.3699 25.7279C93.9475 25.4598 93.6172 25.0848 93.3789 24.6028C93.1433 24.1208 93.0255 23.5576 93.0255 22.9132C93.0255 22.2633 93.1433 21.696 93.3789 21.2114C93.6172 20.7267 93.9475 20.3503 94.3699 20.0822C94.7951 19.8142 95.2892 19.6801 95.8524 19.6801C96.4156 19.6801 96.9084 19.8142 97.3309 20.0822C97.756 20.3503 98.0863 20.7267 98.3219 21.2114C98.5602 21.696 98.6793 22.2633 98.6793 22.9132C98.6793 23.5576 98.5602 24.1208 98.3219 24.6028C98.0863 25.0848 97.756 25.4598 97.3309 25.7279C96.9084 25.9959 96.4156 26.13 95.8524 26.13ZM95.8524 25.2689C96.2803 25.2689 96.6323 25.1592 96.9084 24.9399C97.1846 24.7206 97.3891 24.4322 97.5218 24.0748C97.6544 23.7174 97.7208 23.3302 97.7208 22.9132C97.7208 22.4962 97.6544 22.1076 97.5218 21.7475C97.3891 21.3874 97.1846 21.0963 96.9084 20.8742C96.6323 20.6522 96.2803 20.5412 95.8524 20.5412C95.4246 20.5412 95.0726 20.6522 94.7964 20.8742C94.5202 21.0963 94.3158 21.3874 94.1831 21.7475C94.0504 22.1076 93.9841 22.4962 93.9841 22.9132C93.9841 23.3302 94.0504 23.7174 94.1831 24.0748C94.3158 24.4322 94.5202 24.7206 94.7964 24.9399C95.0726 25.1592 95.4246 25.2689 95.8524 25.2689ZM101.978 26.1462C101.583 26.1462 101.224 26.0718 100.902 25.9228C100.58 25.7712 100.324 25.5532 100.134 25.2689C99.9448 24.9819 99.8501 24.6353 99.8501 24.2291C99.8501 23.8717 99.9205 23.582 100.061 23.36C100.202 23.1352 100.39 22.9592 100.626 22.8319C100.861 22.7047 101.121 22.6099 101.406 22.5476C101.693 22.4826 101.981 22.4312 102.271 22.3933C102.65 22.3445 102.957 22.308 103.193 22.2836C103.431 22.2565 103.604 22.2119 103.713 22.1496C103.824 22.0873 103.879 21.979 103.879 21.8247V21.7922C103.879 21.3914 103.77 21.08 103.55 20.858C103.334 20.636 103.005 20.5249 102.563 20.5249C102.106 20.5249 101.747 20.6251 101.487 20.8255C101.227 21.0259 101.044 21.2398 100.939 21.4672L100.029 21.1423C100.191 20.7632 100.408 20.4681 100.679 20.2569C100.952 20.043 101.25 19.894 101.572 19.8101C101.897 19.7235 102.217 19.6801 102.531 19.6801C102.731 19.6801 102.961 19.7045 103.221 19.7532C103.484 19.7993 103.737 19.8954 103.981 20.0416C104.227 20.1878 104.432 20.4085 104.594 20.7037C104.756 20.9988 104.838 21.3941 104.838 21.8896V26H103.879V25.1552H103.83C103.765 25.2906 103.657 25.4354 103.506 25.5898C103.354 25.7441 103.152 25.8754 102.9 25.9838C102.649 26.0921 102.341 26.1462 101.978 26.1462ZM102.125 25.2852C102.504 25.2852 102.823 25.2107 103.083 25.0618C103.346 24.9128 103.543 24.7206 103.676 24.485C103.811 24.2494 103.879 24.0017 103.879 23.7417V22.8644C103.839 22.9132 103.749 22.9579 103.611 22.9985C103.476 23.0364 103.319 23.0702 103.14 23.1C102.964 23.1271 102.792 23.1515 102.624 23.1731C102.459 23.1921 102.325 23.2083 102.222 23.2219C101.973 23.2544 101.74 23.3072 101.523 23.3803C101.31 23.4507 101.136 23.5576 101.004 23.7011C100.874 23.8419 100.809 24.0342 100.809 24.2779C100.809 24.6109 100.932 24.8627 101.178 25.0333C101.427 25.2012 101.743 25.2852 102.125 25.2852ZM108.943 26.13C108.423 26.13 107.964 25.9986 107.566 25.736C107.168 25.4706 106.857 25.097 106.632 24.615C106.407 24.1303 106.295 23.5576 106.295 22.8969C106.295 22.2417 106.407 21.673 106.632 21.1911C106.857 20.7091 107.169 20.3368 107.57 20.0741C107.971 19.8115 108.434 19.6801 108.959 19.6801C109.365 19.6801 109.686 19.7478 109.922 19.8832C110.16 20.0159 110.342 20.1675 110.466 20.3381C110.593 20.506 110.692 20.6441 110.763 20.7524H110.844V17.6818H111.802V26H110.876V25.0415H110.763C110.692 25.1552 110.592 25.2987 110.462 25.472C110.332 25.6426 110.147 25.7956 109.906 25.931C109.665 26.0636 109.344 26.13 108.943 26.13ZM109.073 25.2689C109.457 25.2689 109.782 25.1687 110.048 24.9684C110.313 24.7653 110.515 24.485 110.653 24.1276C110.791 23.7675 110.86 23.3518 110.86 22.8807C110.86 22.415 110.792 22.0074 110.657 21.6581C110.522 21.3061 110.321 21.0326 110.056 20.8377C109.791 20.64 109.463 20.5412 109.073 20.5412C108.667 20.5412 108.328 20.6454 108.058 20.8539C107.79 21.0597 107.588 21.34 107.452 21.6947C107.32 22.0467 107.253 22.442 107.253 22.8807C107.253 23.3248 107.321 23.7282 107.456 24.091C107.595 24.4512 107.798 24.7382 108.066 24.9521C108.336 25.1633 108.672 25.2689 109.073 25.2689ZM119.442 26.13C118.879 26.13 118.385 25.9959 117.96 25.7279C117.537 25.4598 117.207 25.0848 116.969 24.6028C116.733 24.1208 116.615 23.5576 116.615 22.9132C116.615 22.2633 116.733 21.696 116.969 21.2114C117.207 20.7267 117.537 20.3503 117.96 20.0822C118.385 19.8142 118.879 19.6801 119.442 19.6801C120.005 19.6801 120.498 19.8142 120.921 20.0822C121.346 20.3503 121.676 20.7267 121.912 21.2114C122.15 21.696 122.269 22.2633 122.269 22.9132C122.269 23.5576 122.15 24.1208 121.912 24.6028C121.676 25.0848 121.346 25.4598 120.921 25.7279C120.498 25.9959 120.005 26.13 119.442 26.13ZM119.442 25.2689C119.87 25.2689 120.222 25.1592 120.498 24.9399C120.774 24.7206 120.979 24.4322 121.112 24.0748C121.244 23.7174 121.311 23.3302 121.311 22.9132C121.311 22.4962 121.244 22.1076 121.112 21.7475C120.979 21.3874 120.774 21.0963 120.498 20.8742C120.222 20.6522 119.87 20.5412 119.442 20.5412C119.014 20.5412 118.662 20.6522 118.386 20.8742C118.11 21.0963 117.906 21.3874 117.773 21.7475C117.64 22.1076 117.574 22.4962 117.574 22.9132C117.574 23.3302 117.64 23.7174 117.773 24.0748C117.906 24.4322 118.11 24.7206 118.386 24.9399C118.662 25.1592 119.014 25.2689 119.442 25.2689ZM124.691 22.2471V26H123.732V19.7614H124.658V20.7362H124.74C124.886 20.4193 125.108 20.1648 125.406 19.9726C125.704 19.7776 126.088 19.6801 126.559 19.6801C126.982 19.6801 127.351 19.7668 127.668 19.9401C127.985 20.1107 128.231 20.3706 128.407 20.7199C128.583 21.0665 128.671 21.5051 128.671 22.0359V26H127.713V22.1009C127.713 21.6108 127.585 21.229 127.331 20.9555C127.076 20.6793 126.727 20.5412 126.283 20.5412C125.977 20.5412 125.704 20.6075 125.463 20.7402C125.224 20.8729 125.036 21.0665 124.898 21.321C124.76 21.5756 124.691 21.8842 124.691 22.2471ZM136.353 19.7614V20.5737H133.12V19.7614H136.353ZM134.062 18.2667H135.021V24.2129C135.021 24.4837 135.06 24.6867 135.138 24.8221C135.22 24.9548 135.322 25.0442 135.447 25.0902C135.574 25.1335 135.708 25.1552 135.849 25.1552C135.955 25.1552 136.041 25.1498 136.109 25.1389C136.177 25.1254 136.231 25.1146 136.272 25.1064L136.467 25.9675C136.402 25.9919 136.311 26.0162 136.194 26.0406C136.078 26.0677 135.93 26.0812 135.752 26.0812C135.481 26.0812 135.216 26.023 134.956 25.9066C134.698 25.7902 134.484 25.6128 134.314 25.3745C134.146 25.1362 134.062 24.8357 134.062 24.4728V18.2667ZM138.887 22.2471V26H137.929V17.6818H138.887V20.7362H138.968C139.115 20.4139 139.334 20.158 139.626 19.9685C139.922 19.7763 140.314 19.6801 140.804 19.6801C141.229 19.6801 141.602 19.7654 141.921 19.936C142.241 20.1039 142.489 20.3625 142.665 20.7118C142.843 21.0584 142.933 21.4997 142.933 22.0359V26H141.974V22.1009C141.974 21.6053 141.845 21.2222 141.588 20.9514C141.334 20.6779 140.98 20.5412 140.528 20.5412C140.214 20.5412 139.932 20.6075 139.683 20.7402C139.437 20.8729 139.242 21.0665 139.098 21.321C138.958 21.5756 138.887 21.8842 138.887 22.2471ZM147.302 26.13C146.701 26.13 146.182 25.9973 145.746 25.7319C145.313 25.4639 144.979 25.0902 144.743 24.6109C144.51 24.129 144.394 23.5684 144.394 22.9294C144.394 22.2904 144.51 21.7272 144.743 21.2398C144.979 20.7497 145.306 20.3679 145.726 20.0944C146.148 19.8182 146.641 19.6801 147.204 19.6801C147.529 19.6801 147.85 19.7343 148.167 19.8426C148.484 19.9509 148.772 20.1269 149.032 20.3706C149.292 20.6116 149.499 20.9311 149.654 21.3291C149.808 21.7272 149.885 22.2173 149.885 22.7994V23.2056H145.076V22.377H148.91C148.91 22.025 148.84 21.7109 148.699 21.4347C148.561 21.1586 148.363 20.9406 148.106 20.7808C147.852 20.6211 147.551 20.5412 147.204 20.5412C146.823 20.5412 146.492 20.636 146.213 20.8255C145.937 21.0123 145.725 21.256 145.576 21.5566C145.427 21.8572 145.352 22.1794 145.352 22.5233V23.0756C145.352 23.5468 145.434 23.9462 145.596 24.2738C145.761 24.5987 145.99 24.8465 146.282 25.0171C146.575 25.185 146.915 25.2689 147.302 25.2689C147.554 25.2689 147.781 25.2337 147.984 25.1633C148.19 25.0902 148.367 24.9819 148.516 24.8384C148.665 24.6922 148.78 24.5107 148.862 24.2941L149.788 24.5541C149.69 24.8682 149.526 25.1444 149.296 25.3826C149.066 25.6182 148.782 25.8023 148.443 25.935C148.105 26.065 147.724 26.13 147.302 26.13Z" fill="white"/>
<path d="M61.1943 45H59.4054L64.5794 30.9091H66.3408L71.5148 45H69.7259L65.5151 33.1383H65.4051L61.1943 45ZM61.8548 39.4957H69.0654V41.0094H61.8548V39.4957ZM73.4894 48.9631V34.4318H75.0582V36.1106H75.2508C75.3701 35.9271 75.5352 35.6932 75.7462 35.4088C75.9618 35.1199 76.2691 34.863 76.6682 34.6382C77.0718 34.4089 77.6176 34.2942 78.3057 34.2942C79.1955 34.2942 79.9799 34.5167 80.6587 34.9616C81.3376 35.4065 81.8674 36.0372 82.2481 36.8537C82.6288 37.6702 82.8192 38.6334 82.8192 39.7434C82.8192 40.8626 82.6288 41.8328 82.2481 42.6538C81.8674 43.4703 81.3399 44.1033 80.6656 44.5528C79.9914 44.9977 79.2139 45.2202 78.3332 45.2202C77.6543 45.2202 77.1108 45.1078 76.7026 44.883C76.2943 44.6537 75.9801 44.3945 75.76 44.1056C75.5398 43.812 75.3701 43.5689 75.2508 43.3762H75.1132V48.9631H73.4894ZM75.0857 39.7159C75.0857 40.514 75.2026 41.2181 75.4366 41.8282C75.6705 42.4336 76.0122 42.9084 76.4617 43.2524C76.9113 43.5918 77.4617 43.7615 78.113 43.7615C78.7919 43.7615 79.3584 43.5827 79.8125 43.2249C80.2712 42.8625 80.6152 42.3763 80.8445 41.7662C81.0784 41.1516 81.1954 40.4682 81.1954 39.7159C81.1954 38.9728 81.0807 38.3031 80.8514 37.7069C80.6266 37.106 80.2849 36.6312 79.8262 36.2826C79.3721 35.9294 78.8011 35.7528 78.113 35.7528C77.4525 35.7528 76.8975 35.9203 76.448 36.2551C75.9985 36.5854 75.659 37.0486 75.4297 37.6449C75.2004 38.2366 75.0857 38.927 75.0857 39.7159ZM85.2961 48.9631V34.4318H86.8648V36.1106H87.0575C87.1767 35.9271 87.3418 35.6932 87.5528 35.4088C87.7684 35.1199 88.0757 34.863 88.4748 34.6382C88.8784 34.4089 89.4243 34.2942 90.1123 34.2942C91.0022 34.2942 91.7865 34.5167 92.4654 34.9616C93.1442 35.4065 93.674 36.0372 94.0547 36.8537C94.4355 37.6702 94.6258 38.6334 94.6258 39.7434C94.6258 40.8626 94.4355 41.8328 94.0547 42.6538C93.674 43.4703 93.1465 44.1033 92.4723 44.5528C91.798 44.9977 91.0205 45.2202 90.1398 45.2202C89.461 45.2202 88.9174 45.1078 88.5092 44.883C88.101 44.6537 87.7868 44.3945 87.5666 44.1056C87.3464 43.812 87.1767 43.5689 87.0575 43.3762H86.9198V48.9631H85.2961ZM86.8923 39.7159C86.8923 40.514 87.0093 41.2181 87.2432 41.8282C87.4772 42.4336 87.8189 42.9084 88.2684 43.2524C88.7179 43.5918 89.2683 43.7615 89.9197 43.7615C90.5985 43.7615 91.165 43.5827 91.6191 43.2249C92.0778 42.8625 92.4218 42.3763 92.6512 41.7662C92.8851 41.1516 93.0021 40.4682 93.0021 39.7159C93.0021 38.9728 92.8874 38.3031 92.658 37.7069C92.4333 37.106 92.0916 36.6312 91.6329 36.2826C91.1788 35.9294 90.6077 35.7528 89.9197 35.7528C89.2592 35.7528 88.7041 35.9203 88.2546 36.2551C87.8051 36.5854 87.4657 37.0486 87.2363 37.6449C87.007 38.2366 86.8923 38.927 86.8923 39.7159ZM110.478 34.4318C110.396 33.7346 110.061 33.1934 109.474 32.8081C108.886 32.4228 108.166 32.2301 107.313 32.2301C106.689 32.2301 106.143 32.331 105.676 32.5328C105.212 32.7347 104.85 33.0122 104.589 33.3654C104.332 33.7186 104.203 34.1199 104.203 34.5694C104.203 34.9455 104.293 35.2689 104.472 35.5396C104.655 35.8056 104.889 36.0281 105.173 36.2069C105.458 36.3812 105.756 36.5257 106.068 36.6404C106.38 36.7505 106.666 36.8399 106.928 36.9087L108.359 37.294C108.726 37.3904 109.134 37.5234 109.584 37.6931C110.038 37.8628 110.471 38.0944 110.884 38.388C111.301 38.677 111.645 39.0485 111.916 39.5026C112.187 39.9567 112.322 40.514 112.322 41.1745C112.322 41.936 112.122 42.624 111.723 43.2386C111.329 43.8533 110.751 44.3418 109.99 44.7041C109.233 45.0665 108.313 45.2477 107.231 45.2477C106.221 45.2477 105.348 45.0849 104.609 44.7592C103.875 44.4335 103.297 43.9794 102.875 43.3969C102.458 42.8143 102.222 42.1378 102.167 41.3672H103.928C103.974 41.8993 104.153 42.3396 104.465 42.6882C104.781 43.0322 105.18 43.2891 105.662 43.4588C106.148 43.6239 106.671 43.7065 107.231 43.7065C107.882 43.7065 108.467 43.601 108.985 43.39C109.503 43.1744 109.914 42.8763 110.217 42.4956C110.519 42.1103 110.671 41.6607 110.671 41.147C110.671 40.6792 110.54 40.2984 110.279 40.0049C110.017 39.7113 109.673 39.4728 109.247 39.2893C108.82 39.1059 108.359 38.9453 107.864 38.8077L106.13 38.3123C105.029 37.9958 104.157 37.544 103.515 36.9569C102.873 36.3698 102.552 35.6015 102.552 34.652C102.552 33.863 102.765 33.175 103.192 32.5879C103.623 31.9962 104.201 31.5375 104.926 31.2118C105.655 30.8816 106.469 30.7164 107.368 30.7164C108.276 30.7164 109.084 30.8793 109.79 31.2049C110.496 31.526 111.056 31.9664 111.469 32.526C111.886 33.0856 112.106 33.7209 112.129 34.4318H110.478ZM119.503 34.4318V35.8079H114.027V34.4318H119.503ZM115.623 31.8999H117.247V41.9727C117.247 42.4313 117.313 42.7754 117.446 43.0047C117.584 43.2295 117.758 43.3808 117.969 43.4588C118.185 43.5322 118.412 43.5689 118.65 43.5689C118.829 43.5689 118.976 43.5597 119.091 43.5414C119.205 43.5184 119.297 43.5001 119.366 43.4863L119.696 44.945C119.586 44.9862 119.432 45.0275 119.235 45.0688C119.038 45.1147 118.788 45.1376 118.485 45.1376C118.026 45.1376 117.577 45.039 117.137 44.8418C116.701 44.6445 116.338 44.3441 116.049 43.9404C115.765 43.5368 115.623 43.0276 115.623 42.413V31.8999ZM126.126 45.2202C125.172 45.2202 124.334 44.9931 123.614 44.539C122.899 44.0849 122.339 43.4496 121.936 42.6332C121.536 41.8167 121.337 40.8626 121.337 39.771C121.337 38.6701 121.536 37.7091 121.936 36.8881C122.339 36.067 122.899 35.4295 123.614 34.9754C124.334 34.5213 125.172 34.2942 126.126 34.2942C127.08 34.2942 127.915 34.5213 128.63 34.9754C129.35 35.4295 129.91 36.067 130.309 36.8881C130.713 37.7091 130.914 38.6701 130.914 39.771C130.914 40.8626 130.713 41.8167 130.309 42.6332C129.91 43.4496 129.35 44.0849 128.63 44.539C127.915 44.9931 127.08 45.2202 126.126 45.2202ZM126.126 43.7615C126.85 43.7615 127.447 43.5758 127.915 43.2042C128.382 42.8327 128.729 42.3442 128.953 41.7387C129.178 41.1333 129.291 40.4773 129.291 39.771C129.291 39.0646 129.178 38.4064 128.953 37.7963C128.729 37.1862 128.382 36.6932 127.915 36.317C127.447 35.9409 126.85 35.7528 126.126 35.7528C125.401 35.7528 124.805 35.9409 124.337 36.317C123.869 36.6932 123.523 37.1862 123.298 37.7963C123.073 38.4064 122.961 39.0646 122.961 39.771C122.961 40.4773 123.073 41.1333 123.298 41.7387C123.523 42.3442 123.869 42.8327 124.337 43.2042C124.805 43.5758 125.401 43.7615 126.126 43.7615ZM133.393 45V34.4318H134.962V36.0281H135.072C135.264 35.5051 135.613 35.0809 136.118 34.7552C136.622 34.4295 137.191 34.2667 137.824 34.2667C137.943 34.2667 138.092 34.269 138.271 34.2736C138.45 34.2782 138.585 34.285 138.677 34.2942V35.9455C138.622 35.9317 138.496 35.9111 138.299 35.8836C138.106 35.8515 137.902 35.8354 137.686 35.8354C137.173 35.8354 136.714 35.9432 136.31 36.1588C135.911 36.3698 135.595 36.6633 135.361 37.0395C135.131 37.411 135.017 37.8353 135.017 38.3123V45H133.393ZM144.711 45.2202C143.693 45.2202 142.814 44.9954 142.076 44.5459C141.342 44.0918 140.776 43.4588 140.377 42.6469C139.982 41.8305 139.785 40.881 139.785 39.7985C139.785 38.716 139.982 37.7619 140.377 36.9363C140.776 36.106 141.331 35.4593 142.042 34.996C142.757 34.5281 143.592 34.2942 144.546 34.2942C145.096 34.2942 145.64 34.3859 146.177 34.5694C146.713 34.7529 147.202 35.051 147.642 35.4639C148.083 35.8721 148.433 36.4134 148.695 37.0876C148.956 37.7619 149.087 38.5921 149.087 39.5783V40.2663H140.941V38.8627H147.436C147.436 38.2665 147.316 37.7344 147.078 37.2665C146.844 36.7987 146.509 36.4294 146.073 36.1588C145.642 35.8882 145.133 35.7528 144.546 35.7528C143.899 35.7528 143.34 35.9134 142.867 36.2345C142.399 36.551 142.039 36.9638 141.787 37.4729C141.535 37.9821 141.409 38.5279 141.409 39.1104V40.0462C141.409 40.8443 141.546 41.5208 141.821 42.0759C142.101 42.6263 142.489 43.046 142.984 43.335C143.48 43.6193 144.055 43.7615 144.711 43.7615C145.138 43.7615 145.523 43.7019 145.867 43.5827C146.216 43.4588 146.516 43.2753 146.768 43.0322C147.021 42.7845 147.216 42.4772 147.353 42.1103L148.922 42.5506C148.757 43.0827 148.479 43.5505 148.089 43.9542C147.7 44.3532 147.218 44.6652 146.645 44.8899C146.071 45.1101 145.427 45.2202 144.711 45.2202Z" fill="white"/>
<defs>
<filter id="filter0_dd_2007_10261" x="30.91" y="0" width="122.58" height="64" filterUnits="userSpaceOnUse" color-interpolation-filters="sRGB">
<feFlood flood-opacity="0" result="BackgroundImageFix"/>
<feColorMatrix in="SourceAlpha" type="matrix" values="0 0 0 0 0 0 0 0 0 0 0 0 0 0 0 0 0 0 127 0" result="hardAlpha"/>
<feOffset dx="-2"/>
<feComposite in2="hardAlpha" operator="out"/>
<feColorMatrix type="matrix" values="0 0 0 0 0.117647 0 0 0 0 0.117647 0 0 0 0 0.117647 0 0 0 1 0"/>
<feBlend mode="normal" in2="BackgroundImageFix" result="effect1_dropShadow_2007_10261"/>
<feColorMatrix in="SourceAlpha" type="matrix" values="0 0 0 0 0 0 0 0 0 0 0 0 0 0 0 0 0 0 127 0" result="hardAlpha"/>
<feOffset dx="2"/>
<feComposite in2="hardAlpha" operator="out"/>
<feColorMatrix type="matrix" values="0 0 0 0 0.117647 0 0 0 0 0.117647 0 0 0 0 0.117647 0 0 0 1 0"/>
<feBlend mode="normal" in2="effect1_dropShadow_2007_10261" result="effect2_dropShadow_2007_10261"/>
<feBlend mode="normal" in="SourceGraphic" in2="effect2_dropShadow_2007_10261" result="shape"/>
</filter>
<filter id="filter1_d_2007_10261" x="0.910034" y="0" width="34" height="64" filterUnits="userSpaceOnUse" color-interpolation-filters="sRGB">
<feFlood flood-opacity="0" result="BackgroundImageFix"/>
<feColorMatrix in="SourceAlpha" type="matrix" values="0 0 0 0 0 0 0 0 0 0 0 0 0 0 0 0 0 0 127 0" result="hardAlpha"/>
<feOffset dx="2"/>
<feComposite in2="hardAlpha" operator="out"/>
<feColorMatrix type="matrix" values="0 0 0 0 0.117647 0 0 0 0 0.117647 0 0 0 0 0.117647 0 0 0 1 0"/>
<feBlend mode="normal" in2="BackgroundImageFix" result="effect1_dropShadow_2007_10261"/>
<feBlend mode="normal" in="SourceGraphic" in2="effect1_dropShadow_2007_10261" result="shape"/>
</filter>
<filter id="filter2_d_2007_10261" x="149.48" y="0" width="34" height="64" filterUnits="userSpaceOnUse" color-interpolation-filters="sRGB">
<feFlood flood-opacity="0" result="BackgroundImageFix"/>
<feColorMatrix in="SourceAlpha" type="matrix" values="0 0 0 0 0 0 0 0 0 0 0 0 0 0 0 0 0 0 127 0" result="hardAlpha"/>
<feOffset dx="-2"/>
<feComposite in2="hardAlpha" operator="out"/>
<feColorMatrix type="matrix" values="0 0 0 0 0.117647 0 0 0 0 0.117647 0 0 0 0 0.117647 0 0 0 1 0"/>
<feBlend mode="normal" in2="BackgroundImageFix" result="effect1_dropShadow_2007_10261"/>
<feBlend mode="normal" in="SourceGraphic" in2="effect1_dropShadow_2007_10261" result="shape"/>
</filter>
</defs>
</svg>
