<svg width="48" height="44" viewBox="0 0 48 44" fill="none" xmlns="http://www.w3.org/2000/svg">
<path d="M29.7208 25.6241C33.0708 23.8441 35.6118 22.4891 35.8308 22.3841C36.5308 22.0241 37.2548 21.0701 35.8308 20.3291C35.3708 20.0961 32.8968 18.7831 29.7208 17.0891L25.3198 21.3881L29.7208 25.6241Z" fill="#FFCC63"/>
<path d="M25.3202 21.387L11.3052 35.048C11.6332 35.09 12.0052 35.006 12.4432 34.773C13.3632 34.286 23.1082 29.139 29.7222 25.623L25.3202 21.387Z" fill="#F43249"/>
<path d="M25.3202 21.3871L29.7222 17.1091C29.7222 17.1091 13.4292 8.50909 12.4422 8.00209C12.0921 7.79939 11.6825 7.72413 11.2832 7.78909L25.3202 21.3871Z" fill="#00EE76"/>
<path d="M25.32 21.3871L11.283 7.78906C10.713 7.91606 10.231 8.40306 10.231 9.39806V33.4381C10.231 34.3491 10.604 35.0061 11.304 35.0681L25.32 21.3871Z" fill="#00D3FF"/>
</svg>
