<svg width="215" height="64" viewBox="0 0 215 64" fill="none" xmlns="http://www.w3.org/2000/svg">
<g filter="url(#filter0_dd_2007_10274)">
<rect x="40.48" width="133.59" height="64" fill="#1E1E1E"/>
</g>
<g filter="url(#filter1_d_2007_10274)">
<path d="M8.47998 32C8.47998 14.3269 22.8069 0 40.48 0V64C22.8069 64 8.47998 49.6731 8.47998 32Z" fill="#1E1E1E"/>
</g>
<g filter="url(#filter2_d_2007_10274)">
<path d="M174.08 0C191.753 0 206.08 14.3269 206.08 32C206.08 49.6731 191.753 64 174.08 64V0Z" fill="#1E1E1E"/>
</g>
<path d="M48.201 35.6239C51.551 33.8439 54.0921 32.4889 54.3111 32.3839C55.0111 32.0239 55.7351 31.0699 54.3111 30.3289C53.8511 30.0959 51.377 28.7829 48.201 27.0889L43.8 31.3879L48.201 35.6239Z" fill="#FFCC63"/>
<path d="M43.8 31.3872L29.785 45.0482C30.113 45.0902 30.485 45.0062 30.923 44.7732C31.843 44.2862 41.588 39.1392 48.202 35.6232L43.8 31.3872Z" fill="#F43249"/>
<path d="M43.7999 31.3868L48.2019 27.1088C48.2019 27.1088 31.9089 18.5088 30.9219 18.0018C30.5718 17.7991 30.1623 17.7239 29.7629 17.7888L43.7999 31.3868Z" fill="#00EE76"/>
<path d="M43.7999 31.3871L29.7629 17.7891C29.1929 17.9161 28.7109 18.4031 28.7109 19.3981V43.4381C28.7109 44.3491 29.0839 45.0061 29.7839 45.0681L43.7999 31.3871Z" fill="#00D3FF"/>
<path d="M73.2832 20.1875C73.1924 19.9095 73.0727 19.6605 72.9241 19.4403C72.7782 19.2174 72.6035 19.0275 72.3998 18.8706C72.1989 18.7137 71.9705 18.594 71.7145 18.5115C71.4586 18.4289 71.1779 18.3876 70.8724 18.3876C70.3715 18.3876 69.916 18.517 69.5059 18.7757C69.0959 19.0344 68.7698 19.4155 68.5276 19.9192C68.2854 20.4228 68.1643 21.0407 68.1643 21.7727C68.1643 22.5048 68.2868 23.1226 68.5317 23.6263C68.7766 24.1299 69.1083 24.5111 69.5266 24.7698C69.9449 25.0285 70.4155 25.1578 70.9384 25.1578C71.4228 25.1578 71.8494 25.0546 72.2182 24.8482C72.5897 24.6391 72.8787 24.3446 73.0851 23.9648C73.2943 23.5823 73.3988 23.1323 73.3988 22.6149L73.7126 22.6809H71.1696V21.7727H74.3896V22.6809C74.3896 23.3772 74.241 23.9827 73.9438 24.4973C73.6493 25.012 73.242 25.411 72.7218 25.6945C72.2044 25.9752 71.61 26.1156 70.9384 26.1156C70.1899 26.1156 69.5321 25.9395 68.9652 25.5872C68.401 25.2349 67.9606 24.734 67.6441 24.0845C67.3304 23.435 67.1735 22.6644 67.1735 21.7727C67.1735 21.104 67.263 20.5026 67.4419 19.9687C67.6235 19.432 67.8794 18.9752 68.2097 18.5981C68.54 18.2211 68.9308 17.9321 69.3821 17.7312C69.8335 17.5303 70.3302 17.4299 70.8724 17.4299C71.3182 17.4299 71.7338 17.4973 72.1191 17.6321C72.5071 17.7642 72.8525 17.9528 73.1553 18.1977C73.4608 18.4399 73.7153 18.7302 73.919 19.0688C74.1226 19.4045 74.263 19.7774 74.3401 20.1875H73.2832ZM78.6695 26.1321C78.0585 26.1321 77.5315 25.9972 77.0884 25.7275C76.6481 25.4551 76.3082 25.0753 76.0687 24.5882C75.8321 24.0983 75.7137 23.5286 75.7137 22.8791C75.7137 22.2296 75.8321 21.6571 76.0687 21.1618C76.3082 20.6636 76.6412 20.2756 77.0678 19.9976C77.4971 19.7169 77.998 19.5765 78.5704 19.5765C78.9007 19.5765 79.2268 19.6316 79.5488 19.7417C79.8708 19.8517 80.1639 20.0306 80.4281 20.2783C80.6923 20.5233 80.9029 20.848 81.0597 21.2526C81.2166 21.6571 81.295 22.1553 81.295 22.747V23.1598H76.4073V22.3176H80.3043C80.3043 21.9599 80.2327 21.6406 80.0896 21.3599C79.9493 21.0792 79.7483 20.8576 79.4869 20.6953C79.2282 20.5329 78.9227 20.4517 78.5704 20.4517C78.1824 20.4517 77.8466 20.548 77.5632 20.7407C77.2824 20.9306 77.0664 21.1783 76.915 21.4838C76.7637 21.7892 76.688 22.1167 76.688 22.4663V23.0277C76.688 23.5066 76.7705 23.9125 76.9357 24.2455C77.1035 24.5758 77.3361 24.8276 77.6333 25.001C77.9306 25.1716 78.276 25.2569 78.6695 25.2569C78.9255 25.2569 79.1566 25.2211 79.363 25.1496C79.5722 25.0753 79.7525 24.9652 79.9038 24.8193C80.0552 24.6707 80.1722 24.4863 80.2547 24.2662L81.196 24.5304C81.0969 24.8496 80.9304 25.1303 80.6965 25.3725C80.4625 25.6119 80.1736 25.7991 79.8295 25.9339C79.4855 26.0661 79.0988 26.1321 78.6695 26.1321ZM85.5347 19.6591V20.4847H82.2487V19.6591H85.5347ZM83.2064 18.1399H84.1807V24.1836C84.1807 24.4588 84.2206 24.6652 84.3004 24.8028C84.3829 24.9377 84.4875 25.0285 84.6141 25.0753C84.7435 25.1193 84.8797 25.1413 85.0228 25.1413C85.1301 25.1413 85.2182 25.1358 85.287 25.1248C85.3558 25.1111 85.4109 25.1001 85.4521 25.0918L85.6503 25.967C85.5842 25.9917 85.492 26.0165 85.3737 26.0413C85.2554 26.0688 85.1054 26.0826 84.9237 26.0826C84.6485 26.0826 84.3788 26.0234 84.1146 25.9051C83.8531 25.7867 83.6357 25.6064 83.4623 25.3643C83.2917 25.1221 83.2064 24.8166 83.2064 24.4478V18.1399ZM90.2697 26V19.6591H91.244V26H90.2697ZM90.7651 18.6023C90.5752 18.6023 90.4115 18.5376 90.2739 18.4082C90.139 18.2789 90.0716 18.1234 90.0716 17.9418C90.0716 17.7601 90.139 17.6046 90.2739 17.4753C90.4115 17.3459 90.5752 17.2812 90.7651 17.2812C90.955 17.2812 91.1174 17.3459 91.2523 17.4753C91.3899 17.6046 91.4587 17.7601 91.4587 17.9418C91.4587 18.1234 91.3899 18.2789 91.2523 18.4082C91.1174 18.5376 90.955 18.6023 90.7651 18.6023ZM95.786 19.6591V20.4847H92.5V19.6591H95.786ZM93.4577 18.1399H94.432V24.1836C94.432 24.4588 94.4719 24.6652 94.5517 24.8028C94.6343 24.9377 94.7389 25.0285 94.8655 25.0753C94.9948 25.1193 95.131 25.1413 95.2741 25.1413C95.3815 25.1413 95.4695 25.1358 95.5384 25.1248C95.6072 25.1111 95.6622 25.1001 95.7035 25.0918L95.9016 25.967C95.8356 25.9917 95.7434 26.0165 95.625 26.0413C95.5067 26.0688 95.3567 26.0826 95.1751 26.0826C94.8999 26.0826 94.6301 26.0234 94.3659 25.9051C94.1045 25.7867 93.8871 25.6064 93.7137 25.3643C93.5431 25.1221 93.4577 24.8166 93.4577 24.4478V18.1399ZM103.097 26.1321C102.525 26.1321 102.022 25.9959 101.59 25.7234C101.161 25.4509 100.825 25.0698 100.583 24.5799C100.344 24.09 100.224 23.5176 100.224 22.8626C100.224 22.2021 100.344 21.6255 100.583 21.1329C100.825 20.6402 101.161 20.2577 101.59 19.9852C102.022 19.7128 102.525 19.5765 103.097 19.5765C103.67 19.5765 104.17 19.7128 104.6 19.9852C105.032 20.2577 105.368 20.6402 105.607 21.1329C105.849 21.6255 105.97 22.2021 105.97 22.8626C105.97 23.5176 105.849 24.09 105.607 24.5799C105.368 25.0698 105.032 25.4509 104.6 25.7234C104.17 25.9959 103.67 26.1321 103.097 26.1321ZM103.097 25.2569C103.532 25.2569 103.89 25.1455 104.17 24.9225C104.451 24.6996 104.659 24.4065 104.794 24.0432C104.929 23.68 104.996 23.2864 104.996 22.8626C104.996 22.4387 104.929 22.0438 104.794 21.6778C104.659 21.3117 104.451 21.0159 104.17 20.7902C103.89 20.5645 103.532 20.4517 103.097 20.4517C102.662 20.4517 102.304 20.5645 102.024 20.7902C101.743 21.0159 101.535 21.3117 101.4 21.6778C101.266 22.0438 101.198 22.4387 101.198 22.8626C101.198 23.2864 101.266 23.68 101.4 24.0432C101.535 24.4065 101.743 24.6996 102.024 24.9225C102.304 25.1455 102.662 25.2569 103.097 25.2569ZM108.432 22.1855V26H107.457V19.6591H108.399V20.6499H108.481C108.63 20.3279 108.856 20.0692 109.158 19.8738C109.461 19.6756 109.852 19.5765 110.331 19.5765C110.76 19.5765 111.136 19.6646 111.458 19.8407C111.78 20.0141 112.03 20.2783 112.209 20.6333C112.388 20.9856 112.477 21.4315 112.477 21.9709V26H111.503V22.0369C111.503 21.5388 111.374 21.1507 111.115 20.8728C110.856 20.5921 110.501 20.4517 110.05 20.4517C109.739 20.4517 109.461 20.5191 109.216 20.654C108.974 20.7888 108.783 20.9856 108.642 21.2443C108.502 21.503 108.432 21.8168 108.432 22.1855Z" fill="white"/>
<path d="M77.6359 35.4688C77.487 35.0129 77.2906 34.6045 77.0469 34.2435C76.8078 33.878 76.5212 33.5666 76.1872 33.3093C75.8578 33.0521 75.4832 32.8558 75.0635 32.7204C74.6438 32.585 74.1835 32.5173 73.6826 32.5173C72.8612 32.5173 72.1143 32.7294 71.4419 33.1536C70.7695 33.5778 70.2347 34.2029 69.8376 35.0287C69.4404 35.8546 69.2419 36.8677 69.2419 38.0682C69.2419 39.2686 69.4427 40.2818 69.8443 41.1076C70.246 41.9335 70.7898 42.5585 71.4758 42.9827C72.1617 43.4069 72.9334 43.6191 73.7909 43.6191C74.5852 43.6191 75.2847 43.4498 75.8894 43.1114C76.4986 42.7684 76.9725 42.2855 77.3109 41.6627C77.6539 41.0354 77.8254 40.2976 77.8254 39.4491L78.3399 39.5574H74.17V38.0682H79.4501V39.5574C79.4501 40.6992 79.2064 41.692 78.719 42.536C78.2361 43.3799 77.5682 44.0342 76.7152 44.4991C75.8668 44.9594 74.892 45.1895 73.7909 45.1895C72.5634 45.1895 71.4848 44.9007 70.5551 44.3231C69.63 43.7454 68.9079 42.9241 68.3889 41.859C67.8745 40.794 67.6172 39.5304 67.6172 38.0682C67.6172 36.9715 67.7639 35.9855 68.0572 35.11C68.3551 34.23 68.7748 33.4808 69.3163 32.8625C69.8579 32.2443 70.4987 31.7704 71.2388 31.441C71.979 31.1115 72.7935 30.9468 73.6826 30.9468C74.4137 30.9468 75.0951 31.0574 75.7269 31.2785C76.3632 31.4951 76.9296 31.8043 77.426 32.2059C77.927 32.6031 78.3444 33.0792 78.6784 33.6343C79.0123 34.1848 79.2425 34.7963 79.3688 35.4688H77.6359ZM86.3328 45.2166C85.3941 45.2166 84.5705 44.9932 83.862 44.5465C83.158 44.0997 82.6074 43.4746 82.2103 42.6713C81.8176 41.868 81.6213 40.9294 81.6213 39.8553C81.6213 38.7722 81.8176 37.8267 82.2103 37.0189C82.6074 36.2111 83.158 35.5838 83.862 35.1371C84.5705 34.6903 85.3941 34.4669 86.3328 34.4669C87.2715 34.4669 88.0928 34.6903 88.7968 35.1371C89.5054 35.5838 90.0559 36.2111 90.4486 37.0189C90.8457 37.8267 91.0443 38.7722 91.0443 39.8553C91.0443 40.9294 90.8457 41.868 90.4486 42.6713C90.0559 43.4746 89.5054 44.0997 88.7968 44.5465C88.0928 44.9932 87.2715 45.2166 86.3328 45.2166ZM86.3328 43.7815C87.0458 43.7815 87.6325 43.5987 88.0928 43.2332C88.5532 42.8677 88.8939 42.387 89.115 41.7913C89.3361 41.1956 89.4467 40.5503 89.4467 39.8553C89.4467 39.1603 89.3361 38.5127 89.115 37.9125C88.8939 37.3123 88.5532 36.8271 88.0928 36.4571C87.6325 36.087 87.0458 35.902 86.3328 35.902C85.6198 35.902 85.0331 36.087 84.5728 36.4571C84.1125 36.8271 83.7717 37.3123 83.5506 37.9125C83.3295 38.5127 83.2189 39.1603 83.2189 39.8553C83.2189 40.5503 83.3295 41.1956 83.5506 41.7913C83.7717 42.387 84.1125 42.8677 84.5728 43.2332C85.0331 43.5987 85.6198 43.7815 86.3328 43.7815ZM97.707 45.2166C96.7683 45.2166 95.9447 44.9932 95.2362 44.5465C94.5322 44.0997 93.9816 43.4746 93.5845 42.6713C93.1919 41.868 92.9955 40.9294 92.9955 39.8553C92.9955 38.7722 93.1919 37.8267 93.5845 37.0189C93.9816 36.2111 94.5322 35.5838 95.2362 35.1371C95.9447 34.6903 96.7683 34.4669 97.707 34.4669C98.6457 34.4669 99.467 34.6903 100.171 35.1371C100.88 35.5838 101.43 36.2111 101.823 37.0189C102.22 37.8267 102.418 38.7722 102.418 39.8553C102.418 40.9294 102.22 41.868 101.823 42.6713C101.43 43.4746 100.88 44.0997 100.171 44.5465C99.467 44.9932 98.6457 45.2166 97.707 45.2166ZM97.707 43.7815C98.42 43.7815 99.0067 43.5987 99.467 43.2332C99.9274 42.8677 100.268 42.387 100.489 41.7913C100.71 41.1956 100.821 40.5503 100.821 39.8553C100.821 39.1603 100.71 38.5127 100.489 37.9125C100.268 37.3123 99.9274 36.8271 99.467 36.4571C99.0067 36.087 98.42 35.902 97.707 35.902C96.994 35.902 96.4073 36.087 95.947 36.4571C95.4867 36.8271 95.1459 37.3123 94.9248 37.9125C94.7037 38.5127 94.5931 39.1603 94.5931 39.8553C94.5931 40.5503 94.7037 41.1956 94.9248 41.7913C95.1459 42.387 95.4867 42.8677 95.947 43.2332C96.4073 43.5987 96.994 43.7815 97.707 43.7815ZM109.054 49.1158C108.282 49.1158 107.619 49.0165 107.064 48.8179C106.509 48.6239 106.046 48.3666 105.676 48.0462C105.311 47.7303 105.02 47.3918 104.803 47.0308L106.076 46.1373C106.22 46.3268 106.403 46.5434 106.624 46.7871C106.845 47.0353 107.147 47.2497 107.531 47.4302C107.919 47.6152 108.427 47.7077 109.054 47.7077C109.894 47.7077 110.586 47.5047 111.132 47.0985C111.678 46.6923 111.951 46.056 111.951 45.1895V43.0775H111.816C111.699 43.267 111.532 43.5017 111.315 43.7815C111.103 44.0568 110.796 44.3028 110.394 44.5194C109.997 44.7315 109.46 44.8375 108.783 44.8375C107.944 44.8375 107.19 44.639 106.522 44.2418C105.859 43.8447 105.333 43.267 104.945 42.5089C104.562 41.7507 104.37 40.8301 104.37 39.747C104.37 38.6819 104.557 37.7545 104.932 36.9648C105.306 36.1705 105.827 35.5568 106.495 35.1235C107.163 34.6858 107.935 34.4669 108.81 34.4669C109.487 34.4669 110.024 34.5797 110.422 34.8054C110.823 35.0265 111.13 35.2792 111.342 35.5635C111.559 35.8433 111.726 36.0735 111.843 36.254H112.006V34.6023H113.549V45.2979C113.549 46.1914 113.346 46.918 112.94 47.4776C112.538 48.0417 111.997 48.4546 111.315 48.7164C110.638 48.9826 109.885 49.1158 109.054 49.1158ZM109 43.4024C109.641 43.4024 110.182 43.2558 110.625 42.9624C111.067 42.6691 111.403 42.2471 111.633 41.6966C111.863 41.146 111.978 40.4871 111.978 39.7199C111.978 38.9708 111.866 38.3096 111.64 37.7365C111.414 37.1633 111.08 36.7143 110.638 36.3894C110.196 36.0645 109.65 35.902 109 35.902C108.323 35.902 107.759 36.0735 107.308 36.4165C106.861 36.7594 106.525 37.2198 106.299 37.7974C106.078 38.3751 105.967 39.0159 105.967 39.7199C105.967 40.442 106.08 41.0805 106.306 41.6356C106.536 42.1862 106.874 42.6194 107.321 42.9353C107.772 43.2467 108.332 43.4024 109 43.4024ZM118.071 31.1364V45H116.473V31.1364H118.071ZM125.356 45.2166C124.355 45.2166 123.49 44.9955 122.764 44.5532C122.042 44.1064 121.484 43.4837 121.092 42.6849C120.704 41.8816 120.51 40.9474 120.51 39.8824C120.51 38.8173 120.704 37.8786 121.092 37.0663C121.484 36.2495 122.03 35.6132 122.73 35.1574C123.434 34.697 124.255 34.4669 125.194 34.4669C125.736 34.4669 126.27 34.5571 126.798 34.7377C127.326 34.9182 127.807 35.2115 128.24 35.6177C128.673 36.0193 129.019 36.5518 129.276 37.2152C129.533 37.8786 129.662 38.6955 129.662 39.6657V40.3427H121.647V38.9617H128.037C128.037 38.3751 127.92 37.8516 127.685 37.3912C127.455 36.9309 127.125 36.5676 126.697 36.3014C126.273 36.0351 125.772 35.902 125.194 35.902C124.558 35.902 124.007 36.0599 123.542 36.3758C123.082 36.6872 122.728 37.0934 122.479 37.5943C122.231 38.0953 122.107 38.6323 122.107 39.2054V40.1261C122.107 40.9113 122.243 41.577 122.513 42.123C122.789 42.6646 123.17 43.0775 123.657 43.3618C124.145 43.6416 124.711 43.7815 125.356 43.7815C125.776 43.7815 126.155 43.7228 126.494 43.6055C126.837 43.4837 127.132 43.3031 127.38 43.064C127.629 42.8203 127.82 42.5179 127.956 42.1569L129.499 42.5901C129.337 43.1136 129.064 43.5739 128.68 43.9711C128.297 44.3637 127.823 44.6706 127.259 44.8917C126.695 45.1083 126.06 45.2166 125.356 45.2166ZM137.67 45V31.1364H142.354C143.442 31.1364 144.331 31.3327 145.021 31.7253C145.716 32.1134 146.231 32.6392 146.565 33.3026C146.899 33.966 147.066 34.7061 147.066 35.5229C147.066 36.3397 146.899 37.0821 146.565 37.75C146.235 38.4179 145.725 38.9505 145.035 39.3476C144.344 39.7402 143.46 39.9365 142.381 39.9365H139.024V38.4473H142.327C143.072 38.4473 143.67 38.3186 144.121 38.0614C144.572 37.8042 144.9 37.4567 145.103 37.0189C145.31 36.5767 145.414 36.078 145.414 35.5229C145.414 34.9678 145.31 34.4714 145.103 34.0336C144.9 33.5959 144.57 33.2529 144.114 33.0047C143.659 32.752 143.054 32.6256 142.3 32.6256H139.349V45H137.67ZM151.151 31.1364V45H149.553V31.1364H151.151ZM157.137 45.2437C156.478 45.2437 155.88 45.1196 155.343 44.8714C154.806 44.6187 154.379 44.2554 154.064 43.7815C153.748 43.3031 153.59 42.7255 153.59 42.0486C153.59 41.4529 153.707 40.97 153.942 40.5999C154.176 40.2253 154.49 39.932 154.883 39.7199C155.275 39.5078 155.709 39.3498 156.182 39.246C156.661 39.1377 157.141 39.052 157.624 38.9888C158.256 38.9076 158.768 38.8467 159.161 38.806C159.558 38.7609 159.847 38.6864 160.027 38.5827C160.212 38.4789 160.305 38.2983 160.305 38.0411V37.9869C160.305 37.319 160.122 36.8001 159.757 36.43C159.396 36.0599 158.847 35.8749 158.112 35.8749C157.349 35.8749 156.751 36.0419 156.318 36.3758C155.885 36.7098 155.58 37.0663 155.404 37.4454L153.888 36.9039C154.158 36.272 154.519 35.7801 154.971 35.4281C155.426 35.0716 155.923 34.8234 156.46 34.6835C157.001 34.5391 157.534 34.4669 158.057 34.4669C158.391 34.4669 158.775 34.5075 159.208 34.5887C159.646 34.6655 160.068 34.8257 160.474 35.0694C160.885 35.3131 161.226 35.6809 161.496 36.1728C161.767 36.6647 161.902 37.3236 161.902 38.1494V45H160.305V43.592H160.224C160.115 43.8176 159.935 44.0591 159.682 44.3163C159.429 44.5735 159.093 44.7924 158.674 44.9729C158.254 45.1534 157.742 45.2437 157.137 45.2437ZM157.381 43.8086C158.012 43.8086 158.545 43.6845 158.978 43.4363C159.416 43.1881 159.745 42.8677 159.966 42.475C160.192 42.0824 160.305 41.6695 160.305 41.2362V39.7741C160.237 39.8553 160.088 39.9298 159.858 39.9974C159.632 40.0606 159.371 40.117 159.073 40.1667C158.78 40.2118 158.493 40.2524 158.213 40.2885C157.938 40.3201 157.715 40.3472 157.543 40.3698C157.128 40.4239 156.74 40.5119 156.379 40.6338C156.022 40.7511 155.733 40.9294 155.512 41.1685C155.296 41.4032 155.187 41.7236 155.187 42.1298C155.187 42.6849 155.393 43.1046 155.803 43.3889C156.218 43.6687 156.744 43.8086 157.381 43.8086ZM165.475 48.8991C165.204 48.8991 164.963 48.8766 164.751 48.8315C164.539 48.7908 164.392 48.7502 164.311 48.7096L164.717 47.3016C165.105 47.4009 165.448 47.437 165.746 47.4099C166.044 47.3828 166.308 47.2497 166.538 47.0105C166.772 46.7758 166.987 46.3945 167.181 45.8665L167.479 45.0542L163.634 34.6023H165.367L168.237 42.888H168.345L171.215 34.6023H172.948L168.535 46.5163C168.336 47.0534 168.09 47.4979 167.797 47.8499C167.504 48.2064 167.163 48.4704 166.775 48.6419C166.391 48.8134 165.958 48.8991 165.475 48.8991Z" fill="white"/>
<defs>
<filter id="filter0_dd_2007_10274" x="38.48" y="0" width="137.59" height="64" filterUnits="userSpaceOnUse" color-interpolation-filters="sRGB">
<feFlood flood-opacity="0" result="BackgroundImageFix"/>
<feColorMatrix in="SourceAlpha" type="matrix" values="0 0 0 0 0 0 0 0 0 0 0 0 0 0 0 0 0 0 127 0" result="hardAlpha"/>
<feOffset dx="-2"/>
<feComposite in2="hardAlpha" operator="out"/>
<feColorMatrix type="matrix" values="0 0 0 0 0.117647 0 0 0 0 0.117647 0 0 0 0 0.117647 0 0 0 1 0"/>
<feBlend mode="normal" in2="BackgroundImageFix" result="effect1_dropShadow_2007_10274"/>
<feColorMatrix in="SourceAlpha" type="matrix" values="0 0 0 0 0 0 0 0 0 0 0 0 0 0 0 0 0 0 127 0" result="hardAlpha"/>
<feOffset dx="2"/>
<feComposite in2="hardAlpha" operator="out"/>
<feColorMatrix type="matrix" values="0 0 0 0 0.117647 0 0 0 0 0.117647 0 0 0 0 0.117647 0 0 0 1 0"/>
<feBlend mode="normal" in2="effect1_dropShadow_2007_10274" result="effect2_dropShadow_2007_10274"/>
<feBlend mode="normal" in="SourceGraphic" in2="effect2_dropShadow_2007_10274" result="shape"/>
</filter>
<filter id="filter1_d_2007_10274" x="8.47998" y="0" width="34" height="64" filterUnits="userSpaceOnUse" color-interpolation-filters="sRGB">
<feFlood flood-opacity="0" result="BackgroundImageFix"/>
<feColorMatrix in="SourceAlpha" type="matrix" values="0 0 0 0 0 0 0 0 0 0 0 0 0 0 0 0 0 0 127 0" result="hardAlpha"/>
<feOffset dx="2"/>
<feComposite in2="hardAlpha" operator="out"/>
<feColorMatrix type="matrix" values="0 0 0 0 0.117647 0 0 0 0 0.117647 0 0 0 0 0.117647 0 0 0 1 0"/>
<feBlend mode="normal" in2="BackgroundImageFix" result="effect1_dropShadow_2007_10274"/>
<feBlend mode="normal" in="SourceGraphic" in2="effect1_dropShadow_2007_10274" result="shape"/>
</filter>
<filter id="filter2_d_2007_10274" x="172.08" y="0" width="34" height="64" filterUnits="userSpaceOnUse" color-interpolation-filters="sRGB">
<feFlood flood-opacity="0" result="BackgroundImageFix"/>
<feColorMatrix in="SourceAlpha" type="matrix" values="0 0 0 0 0 0 0 0 0 0 0 0 0 0 0 0 0 0 127 0" result="hardAlpha"/>
<feOffset dx="-2"/>
<feComposite in2="hardAlpha" operator="out"/>
<feColorMatrix type="matrix" values="0 0 0 0 0.117647 0 0 0 0 0.117647 0 0 0 0 0.117647 0 0 0 1 0"/>
<feBlend mode="normal" in2="BackgroundImageFix" result="effect1_dropShadow_2007_10274"/>
<feBlend mode="normal" in="SourceGraphic" in2="effect1_dropShadow_2007_10274" result="shape"/>
</filter>
</defs>
</svg>
