<svg width="25" height="26" viewBox="0 0 25 26" fill="none" xmlns="http://www.w3.org/2000/svg">
<path fill-rule="evenodd" clip-rule="evenodd" d="M7.26502 9.94347C7.45254 9.756 7.70685 9.65069 7.97202 9.65069C8.23718 9.65069 8.49149 9.756 8.67902 9.94347L12.972 14.2365L17.265 9.94347C17.3573 9.84796 17.4676 9.77178 17.5896 9.71937C17.7116 9.66696 17.8428 9.63938 17.9756 9.63822C18.1084 9.63707 18.2401 9.66237 18.363 9.71265C18.4859 9.76293 18.5975 9.83718 18.6914 9.93108C18.7853 10.025 18.8596 10.1366 18.9098 10.2595C18.9601 10.3824 18.9854 10.5141 18.9843 10.6469C18.9831 10.7797 18.9555 10.9109 18.9031 11.0329C18.8507 11.1549 18.7745 11.2652 18.679 11.3575L13.679 16.3575C13.4915 16.5449 13.2372 16.6503 12.972 16.6503C12.7069 16.6503 12.4525 16.5449 12.265 16.3575L7.26502 11.3575C7.07754 11.1699 6.97223 10.9156 6.97223 10.6505C6.97223 10.3853 7.07754 10.131 7.26502 9.94347Z" fill="white"/>
</svg>
