<svg width="49" height="49" viewBox="0 0 49 49" fill="none" xmlns="http://www.w3.org/2000/svg">
<rect x="0.5" y="0.199951" width="48" height="48" rx="24" fill="#FEF7EC"/>
<g opacity="0.9">
<path fill-rule="evenodd" clip-rule="evenodd" d="M24.5004 33.7999C29.8023 33.7999 34.1004 29.5018 34.1004 24.1999C34.1004 18.8979 29.8023 14.5999 24.5004 14.5999C19.1985 14.5999 14.9004 18.8979 14.9004 24.1999C14.9004 29.5018 19.1985 33.7999 24.5004 33.7999ZM25.5 19.7C25.5 19.1477 25.0523 18.7 24.5 18.7C23.9477 18.7 23.5 19.1477 23.5 19.7V24.2C23.5 24.4652 23.6054 24.7195 23.7929 24.9071L26.7929 27.9071C27.1834 28.2976 27.8166 28.2976 28.2071 27.9071C28.5976 27.5165 28.5976 26.8834 28.2071 26.4928L25.5 23.7857V19.7Z" fill="#B47818"/>
</g>
</svg>
