<svg width="49" height="49" viewBox="0 0 49 49" fill="none" xmlns="http://www.w3.org/2000/svg">
<rect x="0.5" y="0.199951" width="48" height="48" rx="24" fill="#FDEDF0"/>
<path d="M14.9 24.8C14.9 24.5636 14.9466 24.3295 15.037 24.1111C15.1275 23.8928 15.2601 23.6943 15.4272 23.5272C15.5943 23.36 15.7928 23.2275 16.0112 23.137C16.2295 23.0465 16.4636 23 16.7 23C16.9364 23 17.1704 23.0465 17.3888 23.137C17.6072 23.2275 17.8056 23.36 17.9728 23.5272C18.1399 23.6943 18.2725 23.8928 18.363 24.1111C18.4534 24.3295 18.5 24.5636 18.5 24.8V32C18.5 32.4774 18.3104 32.9352 17.9728 33.2728C17.6352 33.6103 17.1774 33.8 16.7 33.8C16.2226 33.8 15.7648 33.6103 15.4272 33.2728C15.0896 32.9352 14.9 32.4774 14.9 32V24.8ZM19.7 24.5996V31.1156C19.6998 31.5616 19.8239 31.9988 20.0583 32.3782C20.2927 32.7576 20.6282 33.0642 21.0272 33.2636L21.0872 33.2936C21.7531 33.6264 22.4872 33.7997 23.2316 33.8H29.7308C30.2858 33.8002 30.8238 33.608 31.2531 33.2562C31.6823 32.9044 31.9764 32.4146 32.0852 31.8704L33.5252 24.6704C33.5948 24.3222 33.5863 23.963 33.5002 23.6185C33.4142 23.274 33.2528 22.953 33.0278 22.6784C32.8027 22.4038 32.5195 22.1826 32.1985 22.0307C31.8776 21.8788 31.527 21.8 31.172 21.8H26.9V17C26.9 16.3635 26.6471 15.753 26.1971 15.3029C25.747 14.8528 25.1365 14.6 24.5 14.6C24.1817 14.6 23.8765 14.7264 23.6515 14.9514C23.4264 15.1765 23.3 15.4817 23.3 15.8V16.6004C23.3 17.639 22.9631 18.6495 22.34 19.4804L20.66 21.7196C20.0368 22.5504 19.7 23.561 19.7 24.5996Z" fill="#AF1D38"/>
</svg>
