<svg width="80" height="80" viewBox="0 0 80 80" fill="none" xmlns="http://www.w3.org/2000/svg">
<rect width="80" height="80" rx="10" fill="#FEF3EB"/>
<path d="M41.3575 25.2094L56.29 51.3716C56.4276 51.6127 56.5 51.8861 56.5 52.1644C56.5 52.4427 56.4276 52.7162 56.29 52.9572C56.1524 53.1982 55.9545 53.3984 55.7163 53.5376C55.478 53.6767 55.2076 53.75 54.9325 53.75H25.0675C24.7924 53.75 24.522 53.6767 24.2837 53.5376C24.0455 53.3984 23.8476 53.1982 23.71 52.9572C23.5724 52.7162 23.5 52.4427 23.5 52.1644C23.5 51.8861 23.5724 51.6127 23.71 51.3716L38.6425 25.2094C38.7801 24.9684 38.978 24.7682 39.2163 24.6291C39.4545 24.4899 39.7249 24.4167 40 24.4167C40.2752 24.4167 40.5455 24.4899 40.7837 24.6291C41.022 24.7682 41.2199 24.9684 41.3575 25.2094ZM38.4324 45.8221V48.9932H41.5676V45.8221H38.4324ZM38.4324 34.7229V42.6509H41.5676V34.7229H38.4324Z" fill="#F27B2C"/>
</svg>
