<svg width="17" height="17" viewBox="0 0 17 17" fill="none" xmlns="http://www.w3.org/2000/svg">
<rect x="0.910156" y="0.0999756" width="16" height="16" rx="8" fill="#00EE76"/>
<g clip-path="url(#clip0_2028_15962)">
<path d="M10.7817 5.588C10.6915 5.58466 10.6037 5.60137 10.5185 5.63814C10.4333 5.67491 10.3606 5.72839 10.3004 5.79859L7.36724 9.03257L6.22406 7.69385C6.15387 7.6036 6.06445 7.53675 5.95582 7.49329C5.84718 7.44984 5.73604 7.43814 5.62239 7.4582C5.50874 7.47825 5.40846 7.52588 5.32155 7.60109C5.23465 7.6763 5.17197 7.76822 5.13353 7.87686C5.09509 7.98549 5.08841 8.09664 5.11348 8.21028C5.13855 8.32393 5.19119 8.42254 5.27142 8.50611L6.87587 10.3863C6.9327 10.4565 7.00206 10.5108 7.08395 10.5493C7.16584 10.5877 7.25192 10.6078 7.34217 10.6094C7.43242 10.6111 7.51933 10.5936 7.60289 10.5568C7.68646 10.52 7.75832 10.4682 7.81849 10.4014L11.228 6.64093C11.3115 6.55067 11.3642 6.44455 11.3859 6.32254C11.4076 6.20054 11.3943 6.08271 11.3458 5.96906C11.2973 5.85541 11.2221 5.76432 11.1202 5.6958C11.0182 5.62728 10.9054 5.59134 10.7817 5.588Z" fill="white"/>
</g>
<defs>
<clipPath id="clip0_2028_15962">
<rect width="6" height="6" fill="white" transform="matrix(1 0 0 -1 5.09863 11.1)"/>
</clipPath>
</defs>
</svg>
