<svg width="49" height="49" viewBox="0 0 49 49" fill="none" xmlns="http://www.w3.org/2000/svg">
<rect x="0.5" y="0.199951" width="48" height="48" rx="24" fill="#EEEBFF"/>
<path d="M24.6616 21.0974C24.6616 22.9111 23.3953 24.2 21.8333 24.2C20.2713 24.2 19.005 22.9111 19.005 21.0974C19.005 19.2837 20.2713 18.2 21.8333 18.2C23.3953 18.2 24.6616 19.2837 24.6616 21.0974Z" fill="#5A36BF"/>
<path d="M28.5 29.7802C28.5 31.853 26.4798 33.5333 21.8333 33.5333C17.1869 33.5333 15.1667 31.853 15.1667 29.7802C15.1667 27.7074 18.1514 26.0271 21.8333 26.0271C25.5152 26.0271 28.5 27.7074 28.5 29.7802Z" fill="#5A36BF"/>
<path d="M29.3938 15.1597C29.5675 14.7689 30.0992 14.7689 30.2729 15.1597L31.0928 17.0045C31.1634 17.1634 31.3076 17.2729 31.474 17.294L33.4064 17.5387C33.8158 17.5905 33.9801 18.1189 33.6781 18.4123L32.2524 19.7972C32.1296 19.9165 32.0745 20.0936 32.1068 20.2655L32.4812 22.2616C32.5605 22.6844 32.1303 23.011 31.77 22.8015L30.0689 21.8126C29.9224 21.7274 29.7442 21.7274 29.5977 21.8126L27.8967 22.8015C27.5363 23.011 27.1062 22.6844 27.1855 22.2616L27.5599 20.2655C27.5921 20.0936 27.5371 19.9165 27.4143 19.7972L25.9886 18.4123C25.6866 18.1189 25.8509 17.5905 26.2602 17.5387L28.1927 17.294C28.3591 17.2729 28.5033 17.1634 28.5739 17.0045L29.3938 15.1597Z" fill="#5A36BF"/>
</svg>
