<svg width="40" height="41" viewBox="0 0 40 41" fill="none" xmlns="http://www.w3.org/2000/svg">
<rect y="0.5" width="40" height="40" rx="7" fill="#ECECED"/>
<path d="M27.3131 15.437C27.7641 15.1865 27.5862 14.4999 27.0703 14.4999H12.9294C12.4135 14.4999 12.2356 15.1865 12.6866 15.437L19.7572 19.365C19.9082 19.4489 20.0918 19.4489 20.2428 19.365L27.3131 15.437Z" fill="#0A090B"/>
<path d="M12.7496 16.9318C12.4163 16.7397 12 16.9803 12 17.365V24.5C12 25.6046 12.8954 26.5 14 26.5H26C27.1046 26.5 28 25.6046 28 24.5V17.2388C28 16.8516 27.5789 16.6114 27.2456 16.8084L20.9998 20.4999C20.4002 20.933 19.5932 20.9423 18.9838 20.5233L12.7496 16.9318Z" fill="#0A090B"/>
</svg>
