<svg width="49" height="49" viewBox="0 0 49 49" fill="none" xmlns="http://www.w3.org/2000/svg">
<rect x="0.5" y="0.199951" width="48" height="48" rx="24" fill="#EBF1FF"/>
<path fill-rule="evenodd" clip-rule="evenodd" d="M30.5004 14.5999C32.4886 14.5999 34.1004 16.2116 34.1004 18.1999L34.1004 30.2C34.1004 32.1882 32.4886 33.8 30.5004 33.8H18.5004C16.5122 33.8 14.9004 32.1882 14.9004 30.2V18.1999C14.9004 16.2116 16.5122 14.5999 18.5004 14.5999H30.5004ZM26.1549 17.2C25.6026 17.2 25.1549 17.6477 25.1549 18.2C25.1549 18.7522 25.6026 19.2 26.1549 19.2H28.0858L25.2929 21.9928C24.9024 22.3834 24.9024 23.0165 25.2929 23.4071C25.6834 23.7976 26.3166 23.7976 26.7071 23.4071L29.5 20.6142V22.5448C29.5 23.0971 29.9477 23.5448 30.5 23.5448C31.0523 23.5448 31.5 23.0971 31.5 22.5448V18.2C31.5 17.6477 31.0523 17.2 30.5 17.2H26.1549ZM23.5645 26.3946C23.9481 25.9973 23.937 25.3642 23.5397 24.9806C23.1424 24.5969 22.5094 24.608 22.1257 25.0053L19.5 27.7247V25.8551C19.5 25.3028 19.0523 24.8551 18.5 24.8551C17.9477 24.8551 17.5 25.3028 17.5 25.8551V30.2C17.5 30.7522 17.9477 31.2 18.5 31.2H22.8451C23.3974 31.2 23.8451 30.7522 23.8451 30.2C23.8451 29.6477 23.3974 29.2 22.8451 29.2H20.8557L23.5645 26.3946Z" fill="#253EA7"/>
</svg>
