<svg width="24" height="26" viewBox="0 0 24 26" fill="none" xmlns="http://www.w3.org/2000/svg">
<path fill-rule="evenodd" clip-rule="evenodd" d="M6.08501 12.1504H8.03301C8.13101 10.5734 8.45901 9.13939 8.94701 7.98539C8.19596 8.42994 7.55083 9.03286 7.05655 9.75217C6.56228 10.4715 6.23073 11.2899 6.08501 12.1504ZM12.002 5.15039C9.88028 5.15039 7.84545 5.99325 6.34516 7.49354C4.84487 8.99383 4.00201 11.0287 4.00201 13.1504C4.00201 15.2721 4.84487 17.307 6.34516 18.8072C7.84545 20.3075 9.88028 21.1504 12.002 21.1504C14.1237 21.1504 16.1586 20.3075 17.6589 18.8072C19.1592 17.307 20.002 15.2721 20.002 13.1504C20.002 11.0287 19.1592 8.99383 17.6589 7.49354C16.1586 5.99325 14.1237 5.15039 12.002 5.15039ZM12.002 7.15239C11.949 7.16739 11.508 7.29739 10.962 8.38839C10.502 9.30839 10.147 10.6164 10.037 12.1504H13.967C13.857 10.6164 13.502 9.30939 13.042 8.38839C12.496 7.29739 12.055 7.16839 12.002 7.15239ZM15.972 12.1504C15.872 10.5734 15.545 9.13939 15.057 7.98539C15.8081 8.42994 16.4532 9.03286 16.9475 9.75217C17.4418 10.4715 17.7733 11.2899 17.919 12.1504H15.971H15.972ZM13.967 14.1504H10.037C10.147 15.6844 10.502 16.9914 10.962 17.9124C11.508 19.0034 11.949 19.1324 12.002 19.1484C12.055 19.1334 12.496 19.0034 13.042 17.9124C13.502 16.9924 13.857 15.6844 13.967 14.1504ZM8.94701 18.3154C8.45901 17.1614 8.13101 15.7274 8.03301 14.1504H6.08501C6.23073 15.0109 6.56228 15.8293 7.05655 16.5486C7.55083 17.2679 8.19596 17.8708 8.94701 18.3154ZM15.057 18.3154C15.545 17.1614 15.873 15.7274 15.971 14.1504H17.919C17.7733 15.0109 17.4418 15.8293 16.9475 16.5486C16.4532 17.2679 15.8081 17.8708 15.057 18.3154Z" fill="white"/>
</svg>
