<svg width="16" height="16" viewBox="0 0 16 16" fill="none" xmlns="http://www.w3.org/2000/svg">
<path fill-rule="evenodd" clip-rule="evenodd" d="M8.0001 14.4C11.5347 14.4 14.4001 11.5346 14.4001 8.00001C14.4001 4.46538 11.5347 1.60001 8.0001 1.60001C4.46548 1.60001 1.6001 4.46538 1.6001 8.00001C1.6001 11.5346 4.46548 14.4 8.0001 14.4ZM8.8001 4.80001C8.8001 4.35818 8.44193 4.00001 8.0001 4.00001C7.55827 4.00001 7.2001 4.35818 7.2001 4.80001C7.2001 5.24183 7.55827 5.60001 8.0001 5.60001C8.44193 5.60001 8.8001 5.24183 8.8001 4.80001ZM8.8001 7.60001C8.8001 7.15818 8.44193 6.80001 8.0001 6.80001C7.55827 6.80001 7.2001 7.15818 7.2001 7.60001V10.8C7.2001 11.2418 7.55827 11.6 8.0001 11.6C8.44193 11.6 8.8001 11.2418 8.8001 10.8V7.60001Z" fill="#070707"/>
</svg>
