<svg width="15" height="15" viewBox="0 0 15 15" fill="none" xmlns="http://www.w3.org/2000/svg">
<g clip-path="url(#clip0_2007_10353)">
<path d="M7.5 1.7102C9.37017 1.7102 9.59183 1.71895 10.3274 1.75161C11.0111 1.78195 11.3803 1.89686 11.6259 1.99253C11.9297 2.10421 12.2046 2.28262 12.4303 2.51461C12.6759 2.76078 12.827 2.99295 12.9524 3.31845C13.0481 3.56461 13.1624 3.93678 13.1927 4.61753C13.226 5.35545 13.2336 5.57711 13.2336 7.44495C13.2336 9.31511 13.226 9.53678 13.1927 10.2718C13.163 10.9554 13.0481 11.3247 12.9524 11.5709C12.8407 11.8745 12.6623 12.1491 12.4303 12.3747C12.2049 12.607 11.9299 12.7855 11.6259 12.8968C11.3803 12.993 11.0082 13.1074 10.3274 13.1377C9.58892 13.1704 9.36783 13.1785 7.5 13.1785C5.62983 13.1785 5.40817 13.1704 4.67258 13.1377C3.98892 13.1074 3.61967 12.993 3.37408 12.8968C3.07028 12.7851 2.79539 12.6067 2.56967 12.3747C2.33745 12.1494 2.159 11.8746 2.04758 11.5709C1.95192 11.3247 1.83758 10.9525 1.80725 10.2718C1.774 9.53386 1.76642 9.31219 1.76642 7.44495C1.76642 5.5742 1.774 5.35311 1.80725 4.61753C1.837 3.93386 1.95192 3.56461 2.04758 3.31845C2.17358 2.99295 2.32642 2.75845 2.56967 2.51461C2.81583 2.26845 3.048 2.11795 3.37408 1.99253C3.61967 1.89686 3.99183 1.78195 4.67258 1.75161C5.40817 1.71895 5.62925 1.7102 7.5 1.7102ZM7.5 0.450195C5.5995 0.450195 5.3615 0.458362 4.61542 0.491029C3.87167 0.524279 3.36008 0.644445 2.91733 0.816529C2.4493 0.992341 2.02555 1.26873 1.676 1.6262C1.31923 1.97518 1.04291 2.39782 0.866333 2.86461C0.69425 3.31028 0.574083 3.81895 0.540833 4.5627C0.508167 5.3117 0.5 5.5497 0.5 7.4502C0.5 9.35069 0.508167 9.58869 0.540833 10.3348C0.574083 11.0785 0.69425 11.5901 0.866333 12.0329C1.04717 12.4949 1.28458 12.8863 1.676 13.2742C2.02511 13.6301 2.44777 13.9055 2.91442 14.0809C3.36008 14.2536 3.86875 14.3738 4.6125 14.4064C5.35917 14.4391 5.59717 14.4473 7.49708 14.4473C9.39758 14.4473 9.63558 14.4391 10.3822 14.4064C11.126 14.3738 11.637 14.2536 12.0797 14.0809C12.5466 13.9055 12.9695 13.6302 13.3187 13.2742C13.6747 12.9251 13.95 12.5024 14.1255 12.0358C14.2976 11.5901 14.4177 11.0814 14.451 10.3377C14.4837 9.59103 14.4918 9.35303 14.4918 7.45311C14.4918 5.55261 14.4837 5.31461 14.451 4.56795C14.4177 3.8242 14.2976 3.3132 14.1255 2.87045C13.9567 2.40002 13.6825 1.97443 13.324 1.6262C12.9749 1.27027 12.5522 0.994934 12.0856 0.819445C11.6399 0.647362 11.1313 0.526029 10.3875 0.493945C9.6385 0.458945 9.4005 0.450195 7.5 0.450195Z" fill="white"/>
<path d="M7.50002 3.85473C6.54649 3.85504 5.6321 4.23397 4.95785 4.90822C4.28359 5.58247 3.90467 6.49686 3.90436 7.4504C3.90467 8.40393 4.28359 9.31832 4.95785 9.99258C5.6321 10.6668 6.54649 11.0458 7.50002 11.0461C8.45356 11.0458 9.36795 10.6668 10.0422 9.99258C10.7165 9.31832 11.0954 8.40393 11.0957 7.4504C11.0954 6.49686 10.7165 5.58247 10.0422 4.90822C9.36795 4.23397 8.45356 3.85504 7.50002 3.85473ZM7.50002 9.78256C7.19368 9.78253 6.89035 9.72215 6.60734 9.60488C6.32433 9.48762 6.0672 9.31575 5.85061 9.09911C5.63402 8.88247 5.46222 8.62529 5.34502 8.34225C5.22783 8.05921 5.16753 7.75586 5.16757 7.44952C5.1676 7.14318 5.22798 6.83985 5.34525 6.55684C5.46251 6.27383 5.63438 6.01669 5.85102 5.8001C6.06766 5.58352 6.32484 5.41172 6.60788 5.29452C6.89092 5.17733 7.19427 5.11703 7.50061 5.11706C8.11929 5.11714 8.7126 5.36299 9.15003 5.80052C9.58745 6.23805 9.83314 6.83142 9.83307 7.45011C9.83299 8.06879 9.58714 8.6621 9.14961 9.09952C8.71208 9.53694 8.11871 9.78264 7.50002 9.78256ZM12.0774 3.7124C12.0804 3.82453 12.0609 3.93612 12.02 4.04058C11.9791 4.14505 11.9177 4.24027 11.8395 4.32062C11.7612 4.40098 11.6676 4.46485 11.5643 4.50846C11.4609 4.55206 11.3499 4.57453 11.2377 4.57453C11.1256 4.57453 11.0145 4.55206 10.9112 4.50846C10.8078 4.46485 10.7143 4.40098 10.636 4.32062C10.5577 4.24027 10.4963 4.14505 10.4555 4.04058C10.4146 3.93612 10.3951 3.82453 10.398 3.7124C10.4038 3.49352 10.4948 3.28555 10.6516 3.13279C10.8085 2.98002 11.0188 2.89453 11.2377 2.89453C11.4567 2.89453 11.667 2.98002 11.8238 3.13279C11.9807 3.28555 12.0717 3.49352 12.0774 3.7124Z" fill="white"/>
</g>
<defs>
<clipPath id="clip0_2007_10353">
<rect width="14" height="14" fill="white" transform="translate(0.5 0.450195)"/>
</clipPath>
</defs>
</svg>
