<svg width="4970" height="2415" viewBox="0 0 4970 2415" fill="none" xmlns="http://www.w3.org/2000/svg">
<rect width="4970" height="2415" fill="#F6F8FA"/>
<path d="M1125.25 607H931V806.93M1125.25 607V806.93M1125.25 607H1319.5M1125.25 806.93H931M1125.25 806.93V1006.86M1125.25 806.93H1319.5M931 806.93V1006.86M1125.25 1006.86H931M1125.25 1006.86V1206.79M1125.25 1006.86H1319.5M931 1006.86V1206.79M1125.25 1206.79H931M1125.25 1206.79V1406.72M1125.25 1206.79H1319.5M931 1206.79V1406.72M1125.25 1406.72H931M1125.25 1406.72V1606.65M1125.25 1406.72H1319.5M931 1406.72V1606.65M1125.25 1606.65H931M1125.25 1606.65V1806.58M1125.25 1606.65H1319.5M931 1606.65V1806.58H1125.25M1125.25 1806.58H1319.5M1319.5 607V806.93M1319.5 607H1513.75M1319.5 806.93V1006.86M1319.5 806.93H1513.75M1319.5 1006.86V1206.79M1319.5 1006.86H1513.75M1319.5 1206.79V1406.72M1319.5 1206.79H1513.75M1319.5 1406.72V1606.65M1319.5 1406.72H1513.75M1319.5 1606.65V1806.58M1319.5 1606.65H1513.75M1319.5 1806.58H1513.75M1513.75 607V806.93M1513.75 607H1708M1513.75 806.93V1006.86M1513.75 806.93H1708M1513.75 1006.86V1206.79M1513.75 1006.86H1708M1513.75 1206.79V1406.72M1513.75 1206.79H1708M1513.75 1406.72V1606.65M1513.75 1406.72H1708M1513.75 1606.65V1806.58M1513.75 1606.65H1708M1513.75 1806.58H1708M1708 607V806.93M1708 607H1902.25M1708 806.93V1006.86M1708 806.93H1902.25M1708 1006.86V1206.79M1708 1006.86H1902.25M1708 1206.79V1406.72M1708 1206.79H1902.25M1708 1406.72V1606.65M1708 1406.72H1902.25M1708 1606.65V1806.58M1708 1606.65H1902.25M1708 1806.58H1902.25M1902.25 607V806.93M1902.25 607H2096.5M1902.25 806.93V1006.86M1902.25 806.93H2096.5M1902.25 1006.86V1206.79M1902.25 1006.86H2096.5M1902.25 1206.79V1406.72M1902.25 1206.79H2096.5M1902.25 1406.72V1606.65M1902.25 1406.72H2096.5M1902.25 1606.65V1806.58M1902.25 1606.65H2096.5M1902.25 1806.58H2096.5M2096.5 607V806.93M2096.5 607H2290.75M2096.5 806.93V1006.86M2096.5 806.93H2290.75M2096.5 1006.86V1206.79M2096.5 1006.86H2290.75M2096.5 1206.79V1406.72M2096.5 1206.79H2290.75M2096.5 1406.72V1606.65M2096.5 1406.72H2290.75M2096.5 1606.65V1806.58M2096.5 1606.65H2290.75M2096.5 1806.58H2290.75M2290.75 607V806.93M2290.75 607H2485M2290.75 806.93V1006.86M2290.75 806.93H2485M2290.75 1006.86V1206.79M2290.75 1006.86H2485M2290.75 1206.79V1406.72M2290.75 1206.79H2485M2290.75 1406.72V1606.65M2290.75 1406.72H2485M2290.75 1606.65V1806.58M2290.75 1606.65H2485M2290.75 1806.58H2485M2485 607V806.93M2485 607H2679.25M2485 806.93V1006.86M2485 806.93H2679.25M2485 1006.86V1206.79M2485 1006.86H2679.25M2485 1206.79V1406.72M2485 1206.79H2679.25M2485 1406.72V1606.65M2485 1406.72H2679.25M2485 1606.65V1806.58M2485 1606.65H2679.25M2485 1806.58H2679.25M2679.25 607V806.93M2679.25 607H2873.5M2679.25 806.93V1006.86M2679.25 806.93H2873.5M2679.25 1006.86V1206.79M2679.25 1006.86H2873.5M2679.25 1206.79V1406.72M2679.25 1206.79H2873.5M2679.25 1406.72V1606.65M2679.25 1406.72H2873.5M2679.25 1606.65V1806.58M2679.25 1606.65H2873.5M2679.25 1806.58H2873.5M2873.5 607V806.93M2873.5 607H3067.75M2873.5 806.93V1006.86M2873.5 806.93H3067.75M2873.5 1006.86V1206.79M2873.5 1006.86H3067.75M2873.5 1206.79V1406.72M2873.5 1206.79H3067.75M2873.5 1406.72V1606.65M2873.5 1406.72H3067.75M2873.5 1606.65V1806.58M2873.5 1606.65H3067.75M2873.5 1806.58H3067.75M3067.75 607V806.93M3067.75 607H3262M3067.75 806.93V1006.86M3067.75 806.93H3262M3067.75 1006.86V1206.79M3067.75 1006.86H3262M3067.75 1206.79V1406.72M3067.75 1206.79H3262M3067.75 1406.72V1606.65M3067.75 1406.72H3262M3067.75 1606.65V1806.58M3067.75 1606.65H3262M3067.75 1806.58H3262M3262 607V806.93M3262 607H3456.25M3262 806.93V1006.86M3262 806.93H3456.25M3262 1006.86V1206.79M3262 1006.86H3456.25M3262 1206.79V1406.72M3262 1206.79H3456.25M3262 1406.72V1606.65M3262 1406.72H3456.25M3262 1606.65V1806.58M3262 1606.65H3456.25M3262 1806.58H3456.25M3456.25 607V806.93M3456.25 607H3650.5M3456.25 806.93V1006.86M3456.25 806.93H3650.5M3456.25 1006.86V1206.79M3456.25 1006.86H3650.5M3456.25 1206.79V1406.72M3456.25 1206.79H3650.5M3456.25 1406.72V1606.65M3456.25 1406.72H3650.5M3456.25 1606.65V1806.58M3456.25 1606.65H3650.5M3456.25 1806.58H3650.5M3650.5 607V806.93M3650.5 607H3844.75M3650.5 806.93V1006.86M3650.5 806.93H3844.75M3650.5 1006.86V1206.79M3650.5 1006.86H3844.75M3650.5 1206.79V1406.72M3650.5 1206.79H3844.75M3650.5 1406.72V1606.65M3650.5 1406.72H3844.75M3650.5 1606.65V1806.58M3650.5 1606.65H3844.75M3650.5 1806.58H3844.75M3844.75 607V806.93M3844.75 607H4039V806.93M3844.75 806.93V1006.86M3844.75 806.93H4039M3844.75 1006.86V1206.79M3844.75 1006.86H4039M3844.75 1206.79V1406.72M3844.75 1206.79H4039M3844.75 1406.72V1606.65M3844.75 1406.72H4039M3844.75 1606.65V1806.58M3844.75 1606.65H4039M3844.75 1806.58H4039V1606.65M4039 806.93V1006.86M4039 1006.86V1206.79M4039 1206.79V1406.72M4039 1406.72V1606.65" stroke="url(#paint0_radial_4085_3204)" stroke-width="2.72632"/>
<defs>
<radialGradient id="paint0_radial_4085_3204" cx="0" cy="0" r="1" gradientUnits="userSpaceOnUse" gradientTransform="translate(2485 1206.79) rotate(90) scale(599.789 1554)">
<stop stop-color="#CFD1D3"/>
<stop offset="1" stop-color="#CFD1D3" stop-opacity="0"/>
</radialGradient>
</defs>
</svg>
