<svg width="154" height="46" viewBox="0 0 154 46" fill="none" xmlns="http://www.w3.org/2000/svg">
<path d="M36.9739 22.9233C36.8578 17.7617 30.9311 11.6928 24.5928 12.5122C18.9067 13.2472 14.11 17.5939 14.0011 23.7972C13.9994 23.8822 14.3133 23.8517 14.25 23.7972C13.4339 23.0922 9.96666 20.3717 9.23499 23.2961C9.22332 23.3433 9.23555 23.2472 9.23499 23.2961C9.22888 23.6383 8.7011 24.7528 11.0522 26.0561C11.1494 26.11 11.0978 26.2644 10.9894 26.2444C10.245 26.1083 9.62721 26.3194 9.55055 27.1761C9.42777 28.5456 12.9444 30.2339 13.4467 30.43C13.4822 30.4439 13.3528 30.0678 13.3555 30.1067C13.3572 30.1267 13.3589 30.1533 13.3611 30.1828C13.41 30.1544 14.6522 30.6956 14.6572 30.7028C15.055 31.2344 14.3961 30.7283 15.0055 30.7417C15.7511 30.7578 16.4678 30.9278 17.2033 31.0367C17.1233 31.0844 17.0433 31.1322 16.9633 31.18C16.6961 31.3789 16.6461 31.5372 16.9155 31.8083C17.1733 32.0683 17.4272 32.2956 17.6528 32.5922C18.0911 33.1683 18.5405 33.6289 19.1417 34.02C19.2472 34.0889 19.4089 34.1872 19.5433 34.3017C20.3755 33.115 21.31 31.9756 22.2994 31.0994C23.6822 29.875 25.5244 29.36 27.3139 29.7061C28.7678 29.9872 30.765 30.6767 32.8605 32.32C33.1094 32.515 33.7583 31.9011 33.9733 31.6667C35.155 30.3739 37.0711 27.2222 36.9739 22.9233Z" fill="#98BDB6"/>
<path fill-rule="evenodd" clip-rule="evenodd" d="M20.0524 28.5448C20.0525 28.5449 20.0525 28.545 19.9244 28.6517C19.7964 28.7583 19.7964 28.7583 19.7963 28.7583L19.7961 28.758L19.7951 28.7568L19.791 28.7519C19.7873 28.7475 19.7818 28.7409 19.7744 28.7322C19.7597 28.7147 19.7378 28.6888 19.7091 28.6552C19.6516 28.5879 19.5671 28.4897 19.4589 28.3665C19.2426 28.1201 18.932 27.7738 18.5553 27.3749C17.8013 26.5764 16.7857 25.5702 15.7338 24.7319C14.6746 23.8879 13.6056 23.2366 12.7414 23.1117C12.3165 23.0503 11.9559 23.1181 11.6666 23.3384C11.3774 23.5586 11.1349 23.9494 10.9839 24.5846C10.9845 24.5972 10.9858 24.6166 10.9883 24.6419C10.9934 24.6941 11.004 24.7714 11.0254 24.8676C11.0683 25.0601 11.1546 25.3272 11.3284 25.6194C11.6736 26.1995 12.3739 26.8956 13.8095 27.2933C13.8934 27.3165 13.9453 27.4005 13.9285 27.486C13.9118 27.5714 13.8321 27.6295 13.7456 27.6194L13.7455 27.6194L13.7448 27.6193L13.7409 27.6189C13.7386 27.6187 13.7355 27.6183 13.7316 27.618C13.7293 27.6177 13.7266 27.6175 13.7236 27.6172C13.7082 27.6158 13.685 27.6138 13.6553 27.6119C13.5957 27.6081 13.5103 27.6044 13.4085 27.6052C13.2034 27.6069 12.9377 27.6267 12.6837 27.6964C12.4282 27.7664 12.2001 27.8825 12.0502 28.0652C11.905 28.2421 11.8164 28.5021 11.8765 28.8995C11.9014 29.0649 12.0059 29.235 12.1993 29.4083C12.3923 29.5811 12.6614 29.7458 12.9882 29.9004C13.6413 30.2096 14.4952 30.4651 15.3501 30.6683C16.2031 30.8712 17.0491 31.0201 17.6824 31.1184C17.9988 31.1675 18.2618 31.2039 18.4455 31.228C18.5373 31.2401 18.6093 31.2491 18.6583 31.255C18.6827 31.258 18.7014 31.2602 18.7139 31.2617C18.7202 31.2624 18.7249 31.2629 18.7281 31.2633L18.7316 31.2637L18.7324 31.2638L18.7326 31.2638C18.7326 31.2638 18.7326 31.2638 18.7139 31.4294C18.6952 31.5951 18.6951 31.595 18.695 31.595L18.6948 31.595L18.6938 31.5949L18.6899 31.5945C18.6866 31.5941 18.6816 31.5935 18.6751 31.5927C18.6622 31.5912 18.643 31.5889 18.618 31.5859C18.5681 31.5798 18.4951 31.5707 18.4021 31.5585C18.2162 31.5341 17.9507 31.4974 17.6313 31.4478C16.9928 31.3487 16.1375 31.1982 15.273 30.9926C14.4102 30.7875 13.53 30.5257 12.8456 30.2017C12.5035 30.0398 12.2029 29.859 11.9769 29.6566C11.7515 29.4546 11.5877 29.2197 11.5469 28.9493C11.4752 28.4754 11.5775 28.1158 11.7926 27.8537C12.003 27.5972 12.3047 27.4546 12.5955 27.3749C12.6879 27.3495 12.7809 27.3301 12.8717 27.3153C11.9033 26.8896 11.3527 26.312 11.042 25.7898C10.8472 25.4625 10.7493 25.1612 10.7001 24.9401C10.6754 24.8296 10.6629 24.7389 10.6566 24.6747C10.6534 24.6426 10.6517 24.6171 10.6509 24.599C10.6505 24.59 10.6502 24.5828 10.6501 24.5775C10.6501 24.5749 10.65 24.5728 10.65 24.5712L10.65 24.5691L10.65 24.5683L10.65 24.568C10.65 24.5679 10.65 24.5678 10.8167 24.5678H10.65C10.65 24.5551 10.6514 24.5424 10.6543 24.53C10.8151 23.8388 11.0887 23.3594 11.4647 23.0732C11.8437 22.7846 12.3017 22.7114 12.7891 22.7818C13.7494 22.9206 14.8794 23.6249 15.9415 24.4713C17.0108 25.3234 18.0386 26.3422 18.7977 27.1461C19.1776 27.5484 19.4909 27.8977 19.7094 28.1466C19.8187 28.271 19.9043 28.3704 19.9626 28.4388C19.9918 28.473 20.0142 28.4994 20.0293 28.5173C20.0369 28.5263 20.0426 28.5332 20.0465 28.5378L20.0509 28.5431L20.0524 28.5448ZM18.7139 31.4294L18.6952 31.5951C18.7866 31.6054 18.8691 31.5396 18.8795 31.4482C18.8898 31.3567 18.824 31.2742 18.7326 31.2638L18.7139 31.4294ZM20.0311 28.7797C19.9604 28.8386 19.8553 28.8291 19.7964 28.7583L19.9244 28.6517L20.0525 28.545C20.1114 28.6157 20.1018 28.7208 20.0311 28.7797Z" fill="#002C3C"/>
<path fill-rule="evenodd" clip-rule="evenodd" d="M30.6219 25.5833C30.6219 25.5833 30.6219 25.5833 30.5661 25.4561C30.5103 25.3289 30.5104 25.3289 30.5104 25.3289L30.5232 25.3233C30.5316 25.3196 30.5441 25.3142 30.5603 25.3072C30.5927 25.2932 30.6402 25.2728 30.7006 25.247C30.8215 25.1956 30.9942 25.123 31.2021 25.038C31.6176 24.8682 32.1745 24.6489 32.738 24.4516C33.3 24.2548 33.8748 24.0777 34.3242 23.9948C34.5473 23.9537 34.7505 23.9336 34.9094 23.951C35.0592 23.9674 35.2322 24.0262 35.2806 24.2034L35.2807 24.2035C35.3197 24.3467 35.2708 24.4808 35.1913 24.5919C35.1125 24.7021 34.9937 24.8048 34.8575 24.8994C34.5841 25.0894 34.2071 25.2693 33.8327 25.4236C33.5945 25.5217 33.3543 25.6107 33.1373 25.6865C33.1604 25.6883 33.1837 25.6903 33.2069 25.6925C33.4412 25.7144 33.6878 25.7563 33.8775 25.8373C34.0618 25.916 34.2461 26.0581 34.232 26.2998C34.2199 26.5064 34.1035 26.6567 33.9263 26.7566C33.7564 26.8525 33.5244 26.9066 33.2527 26.9357C32.7071 26.994 31.9401 26.9564 31.029 26.884C30.9525 26.8779 30.8955 26.811 30.9015 26.7346C30.9076 26.6581 30.9745 26.601 31.051 26.6071C31.9649 26.6797 32.707 26.7146 33.2232 26.6595C33.4822 26.6318 33.6693 26.5827 33.7899 26.5147C33.9034 26.4507 33.9493 26.3764 33.9547 26.2836M32.2778 25.958C32.2068 25.9629 32.1437 25.9133 32.1315 25.8433C32.1193 25.7732 32.162 25.7053 32.2304 25.6858L32.2319 25.6911C32.2304 25.6858 32.2304 25.6858 32.2304 25.6858L32.2324 25.6853L32.2387 25.6835C32.2444 25.6818 32.2528 25.6794 32.2638 25.6762C32.2859 25.6697 32.3184 25.6601 32.3598 25.6476C32.4426 25.6227 32.5608 25.5862 32.7022 25.5401C32.9852 25.448 33.3595 25.3181 33.7269 25.1667C34.0961 25.0146 34.4508 24.8438 34.699 24.6713C34.8236 24.5847 34.9132 24.5033 34.9654 24.4303C35.0169 24.3583 35.0219 24.3103 35.0127 24.2765C35.0116 24.2728 35.0098 24.2665 34.9937 24.2572C34.974 24.2458 34.9381 24.2336 34.8793 24.2271C34.7612 24.2142 34.5899 24.2283 34.3746 24.268C33.947 24.3468 33.3888 24.518 32.8298 24.7137C32.2723 24.9089 31.7203 25.1263 31.3072 25.2951C31.1007 25.3795 30.9292 25.4516 30.8094 25.5026C30.7495 25.5281 30.7025 25.5483 30.6706 25.5622C30.6546 25.5691 30.6424 25.5744 30.6342 25.578L30.6219 25.5833M30.4389 25.5119C30.4081 25.4417 30.4401 25.3597 30.5103 25.3289L30.5661 25.4561L30.6219 25.5833C30.5517 25.6141 30.4697 25.5822 30.4389 25.5119ZM32.2778 25.958L32.278 25.958L32.2778 25.958ZM32.278 25.958L32.2788 25.958L32.278 25.958ZM32.2788 25.958L32.2824 25.9577L32.2788 25.958ZM32.2824 25.9577C32.2857 25.9575 32.2907 25.9572 32.2972 25.9568L32.2824 25.9577ZM32.2972 25.9568C32.3103 25.9561 32.3297 25.955 32.3545 25.9539L32.2972 25.9568ZM32.3545 25.9539C32.4041 25.9517 32.4752 25.9491 32.5605 25.9478L32.3545 25.9539ZM32.5605 25.9478C32.7315 25.9453 32.9575 25.9481 33.181 25.9691L32.5605 25.9478ZM33.181 25.9691C33.4073 25.9902 33.6192 26.029 33.7684 26.0927L33.181 25.9691ZM33.7684 26.0927C33.923 26.1588 33.9581 26.2255 33.9547 26.2836L33.7684 26.0927Z" fill="#002C3C"/>
<path fill-rule="evenodd" clip-rule="evenodd" d="M28.2589 20.8127C28.3353 20.8063 28.4025 20.863 28.4089 20.9395L28.2705 20.9511C28.4089 20.9395 28.4089 20.9394 28.4089 20.9395L28.409 20.9396L28.4091 20.941L28.4094 20.9449C28.4097 20.9482 28.41 20.9532 28.4105 20.9596C28.4115 20.9724 28.4128 20.9911 28.4144 21.015C28.4176 21.0629 28.4216 21.1318 28.4252 21.2163C28.4325 21.3853 28.4381 21.6178 28.4314 21.8714C28.4247 22.1246 28.4058 22.4015 28.3633 22.6585C28.3222 22.9065 28.2575 23.1474 28.1527 23.331C28.1517 23.3343 28.1504 23.3381 28.149 23.3422C28.1434 23.3589 28.135 23.3826 28.1238 23.412C28.1013 23.4705 28.0672 23.5519 28.0199 23.6448C27.9261 23.8295 27.7773 24.0661 27.56 24.2587C27.3408 24.453 27.0498 24.6041 26.679 24.6079C26.3102 24.6118 25.8805 24.4697 25.382 24.1136C24.3988 23.411 23.979 22.742 23.8412 22.2257C23.7725 21.9685 23.774 21.7489 23.8122 21.5848C23.8312 21.5034 23.8601 21.4317 23.8976 21.3757C23.9314 21.325 23.9881 21.2639 24.0704 21.2498C24.146 21.2368 24.2178 21.2876 24.2308 21.3632C24.2426 21.4321 24.2015 21.4979 24.1368 21.5188C24.1348 21.5212 24.132 21.5248 24.1286 21.5299C24.114 21.5517 24.0961 21.5903 24.0827 21.6478C24.0562 21.7618 24.0511 21.9348 24.1096 22.154C24.2262 22.5908 24.5962 23.2107 25.5435 23.8876C26.0104 24.2211 26.3835 24.3332 26.6761 24.3302C26.9667 24.3272 27.1956 24.2105 27.3757 24.0509C27.5576 23.8896 27.6874 23.686 27.7723 23.519C27.8145 23.4361 27.8448 23.3637 27.8644 23.3125C27.8742 23.2869 27.8813 23.2668 27.8858 23.2533C27.8881 23.2466 27.8898 23.2415 27.8908 23.2383C27.891 23.2376 27.8912 23.2369 27.8914 23.2363C27.8916 23.2358 27.8917 23.2353 27.8918 23.235L27.892 23.2345C27.892 23.2345 27.892 23.2345 27.892 23.2344C27.892 23.2345 27.892 23.2345 28.025 23.2745M27.892 23.2344C27.8952 23.2237 27.8997 23.2134 27.9054 23.2038C27.9889 23.0625 28.0491 22.8556 28.0892 22.6131C28.1289 22.3732 28.1473 22.1101 28.1537 21.8641C28.1602 21.6186 28.1548 21.3928 28.1477 21.2282C28.1442 21.146 28.1403 21.0793 28.1372 21.0333C28.1357 21.0103 28.1344 20.9925 28.1335 20.9805C28.1331 20.9745 28.1327 20.97 28.1325 20.967L28.1322 20.9637L28.1322 20.9629L28.1321 20.9628C28.1257 20.8863 28.1825 20.8192 28.2589 20.8127M24.1411 21.5144C24.1411 21.5144 24.1408 21.5148 24.1401 21.5153C24.1408 21.5146 24.1411 21.5144 24.1411 21.5144Z" fill="#002C3C"/>
<path fill-rule="evenodd" clip-rule="evenodd" d="M34.5922 19.5883C34.6533 19.5419 34.7404 19.5538 34.7868 19.6149L34.6761 19.6989C34.7868 19.6149 34.7868 19.615 34.7868 19.615L34.7869 19.6152L34.7872 19.6155L34.7881 19.6167L34.7913 19.621C34.7939 19.6246 34.7978 19.6298 34.8027 19.6365C34.8124 19.65 34.8264 19.6695 34.8437 19.6946C34.8783 19.7447 34.9263 19.817 34.9808 19.9068C35.0895 20.0861 35.2256 20.3375 35.3327 20.6237C35.5436 21.1878 35.6582 21.9361 35.1486 22.5136C34.6475 23.0814 33.8645 23.2153 33.1518 22.8833C32.4399 22.5517 31.8086 21.764 31.5566 20.5067C31.5415 20.4315 31.5903 20.3583 31.6655 20.3433C31.7407 20.3282 31.8139 20.3769 31.829 20.4522C32.0681 21.6454 32.6562 22.3461 33.2691 22.6315C33.8814 22.9167 34.5286 22.7964 34.9403 22.3298C35.3435 21.8728 35.2739 21.2597 35.0725 20.721C34.9733 20.4559 34.8462 20.2205 34.7433 20.0509C34.692 19.9663 34.647 19.8986 34.6151 19.8523C34.5991 19.8292 34.5864 19.8115 34.5779 19.7997C34.5736 19.7938 34.5704 19.7894 34.5683 19.7866L34.566 19.7835L34.5655 19.7829L34.5655 19.7828C34.5655 19.7828 34.5654 19.7828 34.5654 19.7828M34.5922 19.5883C34.5311 19.6346 34.5191 19.7217 34.5654 19.7828L34.5922 19.5883Z" fill="#002C3C"/>
<mask id="mask0_2404_2301" style="mask-type:luminance" maskUnits="userSpaceOnUse" x="14" y="12" width="27" height="26">
<path d="M15.7733 25.0272L14.25 23.7972L16.0467 15.4645L23.4172 12.3061L33.8678 13.8039L39.1856 19.0589L40.37 31.2839L35.155 37.1922L20.9428 37.6828L15.5994 32.945L15.415 30.7667L17.2039 31.0356L15.7733 25.0272Z" fill="white"/>
</mask>
<g mask="url(#mask0_2404_2301)">
<path fill-rule="evenodd" clip-rule="evenodd" d="M26.2133 13.4761C20.0524 13.4761 15.05 18.6433 15.05 25.0272C15.05 31.4112 20.0524 36.5783 26.2133 36.5783C32.3743 36.5783 37.3767 31.4112 37.3767 25.0272C37.3767 18.6433 32.3743 13.4761 26.2133 13.4761ZM14.7722 25.0272C14.7722 18.4988 19.8902 13.1983 26.2133 13.1983C32.5365 13.1983 37.6544 18.4988 37.6544 25.0272C37.6544 31.5557 32.5365 36.8561 26.2133 36.8561C19.8902 36.8561 14.7722 31.5557 14.7722 25.0272Z" fill="#002C3C"/>
</g>
<path d="M128.145 31.8239C127.556 31.8239 126.957 31.7042 126.349 31.4646C125.741 31.2067 125.216 30.7921 124.773 30.2209C124.35 29.6497 124.138 28.8942 124.138 27.9545C124.138 26.5542 124.783 25.5592 126.072 24.9696C127.381 24.3799 129.085 24.0851 131.186 24.0851H132.015C132.015 22.2794 131.766 21.0449 131.268 20.3815C130.771 19.7182 130.052 19.3866 129.113 19.3866C128.284 19.3866 127.62 19.5616 127.123 19.9117C126.625 20.2618 126.275 20.8698 126.072 21.7358H124.829C124.829 21.1094 124.866 20.6211 124.939 20.271C125.013 19.9025 125.206 19.5616 125.52 19.2484C125.851 18.9167 126.395 18.6772 127.15 18.5298C127.924 18.3639 128.763 18.281 129.665 18.281C131.158 18.281 132.337 18.6864 133.203 19.4971C134.069 20.2894 134.502 21.8188 134.502 24.0851V31.5476H133.12L132.153 30.3038H132.015C131.683 30.7276 131.195 31.0869 130.55 31.3817C129.905 31.6765 129.103 31.8239 128.145 31.8239ZM129.389 30.5802C129.997 30.5802 130.504 30.4328 130.909 30.138C131.315 29.8432 131.683 29.4378 132.015 28.9219V25.1907H131.186C129.822 25.1907 128.744 25.4486 127.952 25.9646C127.16 26.462 126.763 27.1254 126.763 27.9545C126.763 28.8021 127.012 29.4562 127.51 29.9169C128.026 30.3591 128.652 30.5802 129.389 30.5802Z" fill="#98BDB6"/>
<path d="M114.286 21.874C114.286 20.9343 114.157 20.2434 113.899 19.8011C113.641 19.3405 113.125 19.1102 112.351 19.1102H112.075V18.5574H114.286C114.986 18.5574 115.511 18.6587 115.861 18.8614C116.23 19.0457 116.488 19.3589 116.635 19.8011H116.773C117.105 19.3773 117.547 19.018 118.1 18.7232C118.671 18.4284 119.334 18.281 120.09 18.281C120.827 18.281 121.38 18.4192 121.748 18.6956C122.061 18.9351 122.384 19.3497 122.715 19.9393L121.61 20.7685C121.407 20.4921 121.112 20.2894 120.725 20.1604C120.339 20.013 119.896 19.9393 119.399 19.9393C118.846 19.9393 118.339 20.0683 117.879 20.3263C117.418 20.5658 117.05 20.8975 116.773 21.3213V31.5476H114.286V21.874Z" fill="#98BDB6"/>
<path d="M108.567 31.8239C107.536 31.8239 106.725 31.5291 106.135 30.9395C105.546 30.3499 105.251 29.447 105.251 28.2309V19.6629H103.316V18.5574H105.251V16.0699L106.633 14.4116H107.738V18.5574H111.055V19.6629H107.738V28.2309C107.738 29.8892 108.383 30.7184 109.673 30.7184C110.115 30.7184 110.484 30.6723 110.779 30.5802C111.092 30.488 111.414 30.3499 111.746 30.1656L112.022 30.7184C111.599 31.0316 111.129 31.2988 110.613 31.5199C110.097 31.7226 109.415 31.8239 108.567 31.8239Z" fill="#98BDB6"/>
<path d="M90.1063 21.874C90.1063 20.9343 89.9774 20.2434 89.7194 19.8011C89.4614 19.3405 88.9455 19.1102 88.1716 19.1102H87.6189V18.5574H90.1063C90.7881 18.5574 91.304 18.6495 91.6541 18.8338C92.0226 19.018 92.2898 19.2944 92.4556 19.6629H92.5938C92.9808 19.276 93.4783 18.9535 94.0863 18.6956C94.7128 18.4192 95.413 18.281 96.1868 18.281C97.5688 18.281 98.6928 18.6495 99.5588 19.3866C100.443 20.1236 100.885 21.4134 100.885 23.256V31.5476H98.3979V23.256C98.3979 21.9662 98.1031 21.0264 97.5135 20.4368C96.9423 19.8288 96.2237 19.5247 95.3577 19.5247C94.3811 19.5247 93.4598 20.013 92.5938 20.9896V31.5476H90.1063V21.874Z" fill="#98BDB6"/>
<path d="M81.2542 31.8239C80.0013 31.8239 78.9418 31.5291 78.0758 30.9395C77.2098 30.3315 76.5557 29.5207 76.1134 28.5073C75.6712 27.4755 75.4501 26.3239 75.4501 25.0525C75.4501 23.7995 75.6712 22.6571 76.1134 21.6253C76.5557 20.5934 77.1913 19.7827 78.0205 19.1931C78.8681 18.585 79.8539 18.281 80.9778 18.281C82.8388 18.281 84.2208 18.8061 85.1236 19.8564C86.0449 20.8883 86.5056 22.39 86.5056 24.3615L86.4503 25.4671H78.0758C78.0758 27.0148 78.4074 28.277 79.0708 29.2536C79.7341 30.2301 80.6462 30.7184 81.807 30.7184C82.673 30.7184 83.4008 30.5341 83.9904 30.1656C84.5985 29.7971 85.1605 29.2443 85.6764 28.5073L86.2292 28.9219C85.6211 29.9353 84.9117 30.6723 84.101 31.133C83.2903 31.5936 82.3413 31.8239 81.2542 31.8239ZM83.8799 24.3615C83.8799 22.74 83.6404 21.5055 83.1613 20.6579C82.6822 19.8103 81.9544 19.3866 80.9778 19.3866C80.4251 19.3866 79.9276 19.6077 79.4854 20.0499C79.0431 20.4737 78.693 21.0633 78.4351 21.8188C78.1955 22.5742 78.0758 23.4218 78.0758 24.3615H83.8799Z" fill="#98BDB6"/>
<path d="M74.2653 32.7913C72.9386 32.7913 71.9068 32.5886 71.1698 32.1832C70.4327 31.7779 69.9076 31.1514 69.5944 30.3038C69.2995 29.4378 69.1521 28.2862 69.1521 26.849V16.2081L62.2425 31.5475H61.6897L54.5036 15.9317V31.5475H53.3981V13.306H56.0238L62.6571 27.6781L69.1521 13.306H71.6396V26.849C71.6396 28.5626 71.8515 29.8892 72.2753 30.8289C72.7175 31.7687 73.3809 32.2385 74.2653 32.2385V32.7913Z" fill="#98BDB6"/>
</svg>
