<svg width="102" height="21" viewBox="0 0 102 21" fill="none" xmlns="http://www.w3.org/2000/svg">
<path d="M14.2862 13.2507L12.4529 13.5767L16.4318 2.69908C16.6762 2.04724 16.9569 1.5991 17.2738 1.35466C17.5906 1.11022 18.0297 0.987999 18.591 0.987999H23.9415C24.3037 0.987999 24.5707 1.06495 24.7428 1.21886C24.9238 1.36371 25.0144 1.56741 25.0144 1.82996C25.0144 2.06535 24.9555 2.25999 24.8378 2.4139C24.7292 2.56781 24.5707 2.68097 24.3625 2.7534L23.8329 2.94352C23.5613 3.03405 23.3757 3.15627 23.2761 3.31018C23.1856 3.46409 23.1494 3.69947 23.1675 4.01634L24.0502 17.0396C24.0683 17.3745 24.1226 17.6099 24.2131 17.7457C24.3037 17.8725 24.4621 17.9721 24.6884 18.0445L25.2316 18.2346C25.4308 18.298 25.5802 18.4066 25.6798 18.5605C25.7794 18.7054 25.8292 18.8864 25.8292 19.1037C25.8292 19.3572 25.7386 19.57 25.5576 19.742C25.3855 19.914 25.1185 20 24.7563 20H17.0836C16.7125 20 16.4363 19.923 16.2553 19.7691C16.0832 19.6152 15.9972 19.4115 15.9972 19.158C15.9972 18.9408 16.047 18.7552 16.1466 18.6013C16.2462 18.4383 16.4182 18.3161 16.6627 18.2346L17.2059 18.0445C17.4775 17.9539 17.6585 17.8363 17.7491 17.6914C17.8486 17.5465 17.8894 17.3247 17.8713 17.026L16.8528 3.39166L18.4824 3.2287L13.064 18.0988C12.8286 18.7416 12.5841 19.1535 12.3306 19.3346C12.0862 19.5066 11.7965 19.5926 11.4615 19.5926C11.208 19.5926 10.9772 19.5654 10.7689 19.5111C10.5698 19.4477 10.3796 19.3074 10.1986 19.0901C10.0266 18.8638 9.84097 18.5062 9.6418 18.0173L4.04684 3.74474L5.62212 3.41882L4.57646 16.4692C4.54025 16.9128 4.63983 17.2568 4.87522 17.5013C5.11966 17.7367 5.42295 17.9494 5.78508 18.1395L6.15174 18.3432C6.29659 18.4157 6.40976 18.5153 6.49124 18.642C6.57272 18.7687 6.61346 18.9272 6.61346 19.1173C6.61346 19.3798 6.52745 19.5926 6.35544 19.7556C6.18343 19.9185 5.91635 20 5.55422 20H1.43948C1.07735 20 0.810273 19.923 0.63826 19.7691C0.4753 19.6152 0.39382 19.4115 0.39382 19.158C0.39382 18.8955 0.457193 18.6963 0.58394 18.5605C0.71974 18.4247 0.89628 18.3025 1.11356 18.1939L1.39874 18.0716C1.6975 17.9268 1.96005 17.7321 2.18638 17.4877C2.41271 17.2342 2.54399 16.8902 2.5802 16.4556L3.51722 4.7225C3.56249 4.16119 3.53533 3.74927 3.43574 3.48672C3.34521 3.22417 3.15509 3.04311 2.86538 2.94352L2.32218 2.7534C2.1049 2.67192 1.94194 2.55875 1.8333 2.4139C1.72466 2.25999 1.67034 2.06535 1.67034 1.82996C1.67034 1.26865 2.02795 0.987999 2.74316 0.987999H8.06652C8.58256 0.987999 8.99901 1.09664 9.31588 1.31392C9.63275 1.5312 9.91793 1.97481 10.1714 2.64476L14.2862 13.2507ZM40.8245 11.8927C40.8245 12.4722 40.666 12.9248 40.3492 13.2507C40.0323 13.5676 39.5796 13.726 38.9912 13.726H30.8975V12.4224H34.5369C34.9986 12.4224 35.2295 12.196 35.2295 11.7434C35.2295 10.5393 35.0937 9.6792 34.8221 9.16316C34.5595 8.64712 34.211 8.3891 33.7764 8.3891C33.4686 8.3891 33.188 8.50679 32.9345 8.74218C32.69 8.97757 32.4954 9.34875 32.3505 9.85574C32.2057 10.3537 32.1333 10.9874 32.1333 11.7569C32.1333 13.4318 32.5044 14.6585 33.2468 15.4371C33.9892 16.2067 34.9986 16.5914 36.2752 16.5914C36.9179 16.5914 37.4883 16.5054 37.9862 16.3334C38.4932 16.1614 38.9595 15.849 39.385 15.3964C39.6204 15.1791 39.8014 15.0342 39.9282 14.9618C40.0549 14.8803 40.1726 14.8396 40.2813 14.8396C40.4533 14.8396 40.5755 14.9256 40.6479 15.0976C40.7294 15.2606 40.7701 15.4598 40.7701 15.6951C40.7701 16.528 40.4985 17.3021 39.9553 18.0173C39.4121 18.7235 38.6562 19.2938 37.6875 19.7284C36.7278 20.1539 35.6052 20.3667 34.3196 20.3667C32.9526 20.3667 31.7213 20.0951 30.6259 19.5519C29.5395 19.0087 28.6794 18.2482 28.0457 17.2704C27.4119 16.2927 27.0951 15.1519 27.0951 13.8483C27.0951 12.3816 27.3848 11.1096 27.9642 10.0323C28.5527 8.94588 29.4037 8.10392 30.5172 7.5064C31.6308 6.89983 32.9707 6.59654 34.5369 6.59654C35.9221 6.59654 37.0809 6.8274 38.0134 7.28912C38.9459 7.74179 39.6475 8.36647 40.1183 9.16316C40.5891 9.95985 40.8245 10.8697 40.8245 11.8927ZM49.1017 7.72368V17.3383C49.1017 17.6823 49.1288 17.9223 49.1832 18.0581C49.2375 18.1939 49.3325 18.298 49.4683 18.3704L49.7671 18.5198C50.0477 18.6737 50.1881 18.9 50.1881 19.1988C50.1881 19.7329 49.8667 20 49.2239 20H43.1536C42.8187 20 42.5742 19.9366 42.4203 19.8099C42.2755 19.6741 42.203 19.4885 42.203 19.2531C42.203 19.0901 42.2438 18.9453 42.3253 18.8185C42.4158 18.6918 42.5561 18.5877 42.7462 18.5062L43.0722 18.3704C43.1989 18.307 43.2894 18.2074 43.3438 18.0716C43.3981 17.9268 43.4252 17.6823 43.4252 17.3383V10.6434C43.4252 10.3718 43.389 10.1817 43.3166 10.073C43.2442 9.95533 43.1355 9.87385 42.9907 9.82858L42.6648 9.7471C42.4927 9.69278 42.366 9.6113 42.2845 9.50266C42.203 9.39402 42.1623 9.25369 42.1623 9.08168C42.1623 8.88251 42.2166 8.72407 42.3253 8.60638C42.4339 8.48869 42.6376 8.37552 42.9364 8.26688L46.1548 7.07184C46.5803 6.90888 46.9243 6.79119 47.1869 6.71876C47.4494 6.63728 47.7075 6.59654 47.961 6.59654C48.3321 6.59654 48.6128 6.70518 48.8029 6.92246C49.0021 7.13069 49.1017 7.39776 49.1017 7.72368ZM48.6264 11.01L47.8659 10.2088L48.2869 9.815C49.5362 8.66523 50.6045 7.84137 51.4918 7.34344C52.388 6.84551 53.2119 6.59654 53.9633 6.59654C55.104 6.59654 55.9958 6.98583 56.6386 7.76442C57.2814 8.53395 57.6616 9.54793 57.7793 10.8063L58.4176 17.3383C58.4538 17.6823 58.49 17.9268 58.5262 18.0716C58.5624 18.2074 58.6484 18.307 58.7842 18.3704L59.0966 18.5062C59.2957 18.5877 59.4361 18.6918 59.5175 18.8185C59.599 18.9453 59.6398 19.0901 59.6398 19.2531C59.6398 19.4885 59.5628 19.6741 59.4089 19.8099C59.264 19.9366 59.0287 20 58.7027 20H52.551C51.9082 20 51.5868 19.7329 51.5868 19.1988C51.5868 18.9 51.7271 18.6737 52.0078 18.5198L52.3066 18.3704C52.4424 18.298 52.5465 18.1939 52.6189 18.0581C52.6913 17.9223 52.7094 17.6823 52.6732 17.3383L52.13 11.594C52.0847 11.0327 51.9535 10.6117 51.7362 10.331C51.5189 10.0413 51.1885 9.89648 50.7449 9.89648C50.4642 9.89648 50.179 9.95985 49.8893 10.0866C49.6087 10.2043 49.3461 10.3718 49.1017 10.5891L48.6264 11.01ZM61.0603 8.64712L60.5715 8.457C60.3904 8.38457 60.2546 8.28951 60.1641 8.17182C60.0735 8.05413 60.0283 7.9138 60.0283 7.75084C60.0283 7.5064 60.1052 7.32081 60.2591 7.19406C60.4221 7.05826 60.6348 6.99036 60.8974 6.99036H61.6714C61.8254 6.99036 61.9702 6.94962 62.106 6.86814C62.2509 6.78666 62.4319 6.63728 62.6492 6.42L65.0257 4.12498C65.3064 3.85338 65.5644 3.64968 65.7998 3.51388C66.0442 3.37808 66.2751 3.31018 66.4923 3.31018C66.7368 3.31018 66.9269 3.39166 67.0627 3.55462C67.2076 3.71758 67.28 3.94844 67.28 4.2472V15.1519C67.28 15.8309 67.3932 16.347 67.6195 16.7001C67.8549 17.0441 68.1898 17.2161 68.6244 17.2161C68.9503 17.2161 69.2038 17.1346 69.3849 16.9717C69.566 16.8087 69.7153 16.6231 69.833 16.4149C69.9507 16.1976 70.0684 16.003 70.1861 15.8309C70.3129 15.6499 70.4803 15.5458 70.6886 15.5186C70.8515 15.5095 70.9828 15.5639 71.0824 15.6816C71.191 15.7902 71.2453 15.9894 71.2453 16.2791C71.2272 17.0486 71.0009 17.7457 70.5663 18.3704C70.1408 18.986 69.5478 19.4749 68.7874 19.837C68.0359 20.1901 67.1759 20.3667 66.2072 20.3667C64.7405 20.3667 63.6089 20.0181 62.8122 19.321C62.0155 18.6148 61.6171 17.5511 61.6171 16.1297V9.46192C61.6171 9.21748 61.5719 9.04094 61.4813 8.9323C61.3998 8.82366 61.2595 8.7286 61.0603 8.64712ZM65.3516 8.76934L65.3652 6.99036H70.2812C70.5347 6.99036 70.7384 7.04921 70.8923 7.1669C71.0462 7.27554 71.1231 7.43397 71.1231 7.6422C71.1231 7.95907 70.9692 8.22614 70.6614 8.44342C70.3536 8.6607 69.8421 8.76934 69.1269 8.76934H65.3516ZM78.6904 12.5989C78.6904 11.2318 78.8714 10.1047 79.2336 9.21748C79.5957 8.33025 80.0755 7.67389 80.6731 7.24838C81.2706 6.81382 81.9224 6.59654 82.6286 6.59654C83.5611 6.59654 84.2763 6.88172 84.7742 7.45208C85.2812 8.02244 85.5347 8.87798 85.5347 10.0187C85.5347 11.1866 85.2948 12.0466 84.815 12.5989C84.3442 13.1512 83.7331 13.4273 82.9817 13.4273C82.2212 13.4273 81.6508 13.2326 81.2706 12.8433C80.8994 12.454 80.7138 11.9108 80.7138 11.2137L80.7002 10.657C80.6912 10.4216 80.6414 10.245 80.5508 10.1273C80.4603 10.0006 80.3154 9.93722 80.1163 9.93722C79.9352 9.93722 79.7722 10.0187 79.6274 10.1817C79.4916 10.3356 79.383 10.5936 79.3015 10.9557C79.22 11.3179 79.1793 11.8022 79.1793 12.4088L78.6904 12.5989ZM78.8398 7.73726L79.1793 10.6977V17.3247C79.1793 17.6235 79.2245 17.8363 79.3151 17.963C79.4056 18.0897 79.6048 18.1848 79.9126 18.2482L80.9718 18.4519C81.2163 18.5062 81.3973 18.5967 81.515 18.7235C81.6327 18.8412 81.6916 19.0132 81.6916 19.2395C81.6916 19.484 81.6101 19.6741 81.4471 19.8099C81.2842 19.9366 81.0442 20 80.7274 20H73.2312C72.8962 20 72.6518 19.9366 72.4979 19.8099C72.353 19.6741 72.2806 19.4885 72.2806 19.2531C72.2806 19.0901 72.3214 18.9453 72.4028 18.8185C72.4934 18.6918 72.6337 18.5877 72.8238 18.5062L73.1497 18.3704C73.2855 18.307 73.3761 18.2074 73.4213 18.0716C73.4757 17.9268 73.5028 17.6869 73.5028 17.3519V10.6841C73.5028 10.4125 73.4666 10.2224 73.3942 10.1138C73.3217 9.99607 73.2131 9.91459 73.0683 9.86932L72.7423 9.78784C72.5703 9.72447 72.4436 9.63846 72.3621 9.52982C72.2806 9.42118 72.2399 9.28538 72.2399 9.12242C72.2399 8.92325 72.2942 8.76481 72.4028 8.64712C72.5205 8.52037 72.7242 8.40268 73.0139 8.29404L76.1509 7.15332C76.7394 6.92699 77.1604 6.78213 77.4139 6.71876C77.6764 6.64633 77.8801 6.61012 78.025 6.61012C78.2603 6.61012 78.4414 6.69613 78.5682 6.86814C78.6949 7.04015 78.7854 7.32986 78.8398 7.73726ZM94.7112 18.1939V17.8951L94.3038 17.9087V9.02736C94.3038 8.68333 94.2087 8.40721 94.0186 8.19898C93.8375 7.99075 93.5931 7.88664 93.2853 7.88664C93.0408 7.88664 92.8281 7.95001 92.647 8.07676C92.475 8.19445 92.389 8.35289 92.389 8.55206V10.0323C92.389 10.7747 92.131 11.3586 91.6149 11.7841C91.0989 12.2006 90.3701 12.4088 89.4285 12.4088C88.6318 12.4088 88.0343 12.2413 87.636 11.9063C87.2467 11.5623 87.052 11.0779 87.052 10.4533C87.052 9.86479 87.3146 9.27633 87.8397 8.68786C88.3738 8.09939 89.175 7.61051 90.2433 7.22122C91.3207 6.82287 92.6696 6.6237 94.2902 6.6237C96.1914 6.6237 97.6037 6.97678 98.5271 7.68294C99.4506 8.38005 99.9123 9.33517 99.9123 10.5483V17.0667C99.9123 17.2387 99.9576 17.3836 100.048 17.5013C100.139 17.6099 100.27 17.6642 100.442 17.6642C100.596 17.6642 100.723 17.6235 100.822 17.542C100.922 17.4605 101.008 17.3655 101.08 17.2568C101.144 17.2025 101.207 17.1527 101.27 17.1075C101.334 17.0622 101.406 17.0396 101.488 17.0396C101.623 17.0396 101.723 17.0939 101.786 17.2025C101.85 17.3021 101.881 17.4334 101.881 17.5963C101.881 17.9766 101.741 18.384 101.46 18.8185C101.18 19.244 100.754 19.6107 100.184 19.9185C99.6226 20.2173 98.9164 20.3667 98.0654 20.3667C97.0605 20.3667 96.2502 20.163 95.6346 19.7556C95.019 19.3391 94.7112 18.8185 94.7112 18.1939ZM86.536 17.121C86.536 15.8988 87.0837 14.9347 88.1792 14.2285C89.2837 13.5133 90.859 13.1557 92.905 13.1557C93.4211 13.1557 93.8692 13.1919 94.2494 13.2643C94.6387 13.3367 94.9556 13.4409 95.2 13.5767L94.7655 14.6631C94.5754 14.5544 94.3943 14.4775 94.2223 14.4322C94.0593 14.3869 93.8737 14.3643 93.6655 14.3643C93.2309 14.3643 92.8824 14.5182 92.6198 14.826C92.3663 15.1248 92.2396 15.5684 92.2396 16.1569C92.2396 16.7544 92.3663 17.207 92.6198 17.5149C92.8733 17.8227 93.2038 17.9766 93.6112 17.9766C93.8737 17.9766 94.1182 17.9177 94.3445 17.8C94.5799 17.6733 94.7564 17.5239 94.8741 17.3519L95.1865 18.3432C94.761 18.986 94.1363 19.484 93.3124 19.837C92.4976 20.1901 91.6285 20.3667 90.7051 20.3667C89.4557 20.3667 88.4463 20.0588 87.6767 19.4432C86.9162 18.8276 86.536 18.0535 86.536 17.121Z" fill="white"/>
</svg>
