<svg width="120" height="40" viewBox="0 0 120 40" fill="none" xmlns="http://www.w3.org/2000/svg">
<path d="M15.536 24.796L14.032 25.324L19.952 10.076C20.1547 9.55334 20.384 9.19601 20.64 9.00401C20.896 8.80134 21.2587 8.7 21.728 8.7H26.416C26.7147 8.7 26.9387 8.75867 27.088 8.87601C27.2373 8.99334 27.312 9.15867 27.312 9.37201C27.312 9.55334 27.2587 9.708 27.152 9.836C27.056 9.95334 26.9013 10.0493 26.688 10.124L25.808 10.332C25.4667 10.428 25.232 10.572 25.104 10.764C24.976 10.9453 24.928 11.244 24.96 11.66L26.192 28.38C26.2133 28.732 26.288 28.9827 26.416 29.132C26.544 29.2707 26.7627 29.3827 27.072 29.468L27.92 29.676C28.1227 29.74 28.272 29.8307 28.368 29.948C28.464 30.0653 28.512 30.2147 28.512 30.396C28.512 30.5987 28.4373 30.7693 28.288 30.908C28.1387 31.036 27.9147 31.1 27.616 31.1H19.856C19.5467 31.1 19.3173 31.0413 19.168 30.924C19.0187 30.796 18.944 30.6307 18.944 30.428C18.944 30.2467 18.992 30.0973 19.088 29.98C19.184 29.852 19.3493 29.7507 19.584 29.676L20.432 29.468C20.7947 29.372 21.04 29.244 21.168 29.084C21.296 28.924 21.3493 28.6893 21.328 28.38L20 11.34L21.36 11.228L14.592 28.908C14.4107 29.388 14.224 29.6973 14.032 29.836C13.84 29.9747 13.616 30.044 13.36 30.044C13.1787 30.044 13.008 30.0227 12.848 29.98C12.6987 29.9267 12.5547 29.8147 12.416 29.644C12.2773 29.4733 12.1387 29.2067 12 28.844L5.056 11.692L6.368 11.18L4.992 27.82C4.94933 28.2787 5.04533 28.6307 5.28 28.876C5.52533 29.1213 5.856 29.3293 6.272 29.5L7.104 29.756C7.264 29.8307 7.38667 29.916 7.472 30.012C7.568 30.108 7.616 30.236 7.616 30.396C7.616 30.6093 7.54133 30.78 7.392 30.908C7.25333 31.036 7.02933 31.1 6.72 31.1H1.552C1.24267 31.1 1.01333 31.0413 0.864 30.924C0.725333 30.796 0.656 30.6307 0.656 30.428C0.656 30.2147 0.714667 30.0547 0.832 29.948C0.96 29.8413 1.13067 29.7453 1.344 29.66L2.016 29.436C2.38933 29.3187 2.688 29.132 2.912 28.876C3.136 28.62 3.26933 28.268 3.312 27.82L4.624 12.028C4.66667 11.516 4.61867 11.132 4.48 10.876C4.352 10.6093 4.10667 10.4333 3.744 10.348L2.928 10.14C2.69333 10.076 2.51733 9.98534 2.4 9.86801C2.29333 9.74 2.24 9.58 2.24 9.388C2.24 8.92934 2.54933 8.7 3.168 8.7H7.824C8.25067 8.7 8.592 8.78534 8.848 8.95601C9.11467 9.12667 9.34933 9.47334 9.552 9.99601L15.536 24.796ZM44.9773 21.756C44.9773 22.2787 44.8279 22.684 44.5293 22.972C44.2306 23.2493 43.7986 23.388 43.2333 23.388H33.2493V22.252H39.7773C40.2786 22.252 40.5293 22.0227 40.5293 21.564C40.5293 20.1027 40.2733 18.9987 39.7613 18.252C39.2493 17.5053 38.5719 17.132 37.7292 17.132C37.0679 17.132 36.4813 17.3347 35.9693 17.74C35.4679 18.1453 35.0733 18.732 34.7853 19.5C34.5079 20.2573 34.3693 21.18 34.3693 22.268C34.3693 24.348 34.8493 25.9053 35.8093 26.94C36.7799 27.9747 38.0599 28.492 39.6493 28.492C40.6093 28.492 41.4466 28.2947 42.1613 27.9C42.8759 27.5053 43.4146 26.9453 43.7773 26.22C43.9479 26.028 44.0866 25.9 44.1933 25.836C44.2999 25.7613 44.4066 25.724 44.5133 25.724C44.6626 25.724 44.7746 25.7933 44.8493 25.932C44.9239 26.0707 44.9559 26.236 44.9453 26.428C44.9026 27.3453 44.5826 28.188 43.9853 28.956C43.3986 29.724 42.6039 30.3373 41.6013 30.796C40.5986 31.2547 39.4519 31.484 38.1613 31.484C36.6359 31.484 35.2866 31.1693 34.1133 30.54C32.9399 29.9107 32.0173 29.0307 31.3453 27.9C30.6839 26.7587 30.3533 25.4253 30.3533 23.9C30.3533 22.2893 30.6679 20.8707 31.2973 19.644C31.9373 18.4067 32.8546 17.4413 34.0493 16.748C35.2439 16.044 36.6626 15.692 38.3053 15.692C39.7026 15.692 40.8973 15.9533 41.8893 16.476C42.8919 16.988 43.6546 17.7027 44.1773 18.62C44.7106 19.5267 44.9773 20.572 44.9773 21.756ZM53.4073 16.7V28.7C53.4073 29.0093 53.4499 29.2387 53.5353 29.388C53.6313 29.5267 53.7699 29.628 53.9513 29.692L54.5753 29.868C54.8846 29.996 55.0393 30.1933 55.0393 30.46C55.0393 30.8867 54.7673 31.1 54.2233 31.1H48.0153C47.7379 31.1 47.5353 31.0467 47.4073 30.94C47.2793 30.8333 47.2153 30.684 47.2153 30.492C47.2153 30.3427 47.2579 30.22 47.3433 30.124C47.4393 30.0173 47.5779 29.932 47.7593 29.868L48.4153 29.692C48.6073 29.6387 48.7459 29.5427 48.8313 29.404C48.9273 29.2547 48.9753 29.02 48.9753 28.7V19.292C48.9753 19.036 48.9326 18.8547 48.8473 18.748C48.7726 18.6307 48.6499 18.5613 48.4793 18.54L47.6153 18.476C47.4339 18.4333 47.3006 18.3693 47.2153 18.284C47.1406 18.1987 47.1033 18.0867 47.1033 17.948C47.1033 17.7773 47.1513 17.644 47.2473 17.548C47.3539 17.452 47.5353 17.356 47.7913 17.26L50.9273 16.156C51.3006 16.0173 51.5993 15.916 51.8233 15.852C52.0579 15.788 52.2713 15.756 52.4633 15.756C52.7726 15.756 53.0073 15.8467 53.1673 16.028C53.3273 16.1987 53.4073 16.4227 53.4073 16.7ZM52.9273 20.22L52.2553 19.532L52.8793 18.972C54.1913 17.7987 55.3166 16.9613 56.2553 16.46C57.1939 15.948 58.0846 15.692 58.9273 15.692C60.2179 15.692 61.2153 16.1187 61.9193 16.972C62.6339 17.8253 63.0659 18.972 63.2153 20.412L64.1433 28.652C64.1753 28.9827 64.2339 29.228 64.3193 29.388C64.4046 29.5373 64.5433 29.644 64.7353 29.708L65.3273 29.868C65.5193 29.932 65.6579 30.0173 65.7433 30.124C65.8286 30.22 65.8713 30.3427 65.8713 30.492C65.8713 30.684 65.8073 30.8333 65.6793 30.94C65.5513 31.0467 65.3486 31.1 65.0713 31.1H58.7993C58.2553 31.1 57.9833 30.8867 57.9833 30.46C57.9833 30.1933 58.1379 29.996 58.4473 29.868L59.0873 29.692C59.2899 29.628 59.4446 29.5213 59.5513 29.372C59.6579 29.212 59.6953 28.972 59.6633 28.652L58.7993 21.052C58.6926 20.124 58.4579 19.4307 58.0953 18.972C57.7433 18.5133 57.2099 18.284 56.4953 18.284C56.0579 18.284 55.5939 18.4013 55.1033 18.636C54.6233 18.8707 54.1113 19.2173 53.5673 19.676L52.9273 20.22ZM68.0778 17.516L67.2778 17.292C67.0431 17.2173 66.8724 17.132 66.7658 17.036C66.6698 16.9293 66.6217 16.8013 66.6217 16.652C66.6217 16.46 66.6858 16.316 66.8138 16.22C66.9524 16.1133 67.1338 16.06 67.3578 16.06H68.3818C68.6164 16.06 68.8138 16.0173 68.9738 15.932C69.1338 15.8467 69.2991 15.6867 69.4698 15.452L71.3418 12.94C71.5444 12.684 71.7418 12.4973 71.9338 12.38C72.1258 12.2627 72.3124 12.204 72.4938 12.204C72.7071 12.204 72.8724 12.2733 72.9898 12.412C73.1071 12.54 73.1658 12.7267 73.1658 12.972V26.62C73.1658 27.3773 73.3098 27.9587 73.5978 28.364C73.8964 28.7587 74.3124 28.956 74.8458 28.956C75.2191 28.956 75.5124 28.8867 75.7258 28.748C75.9391 28.5987 76.1098 28.428 76.2378 28.236C76.3764 28.0333 76.5044 27.852 76.6218 27.692C76.7498 27.532 76.9044 27.4307 77.0858 27.388C77.2351 27.3773 77.3524 27.42 77.4378 27.516C77.5231 27.612 77.5658 27.7773 77.5658 28.012C77.5444 28.6307 77.3418 29.2013 76.9578 29.724C76.5738 30.236 76.0458 30.6467 75.3738 30.956C74.7018 31.2653 73.9338 31.42 73.0698 31.42C71.7258 31.42 70.6698 31.084 69.9018 30.412C69.1338 29.74 68.7498 28.716 68.7498 27.34V18.396C68.7498 18.14 68.6964 17.948 68.5898 17.82C68.4938 17.692 68.3231 17.5907 68.0778 17.516ZM71.4378 17.516L71.4538 16.06H76.7018C76.9364 16.06 77.1178 16.108 77.2458 16.204C77.3738 16.2893 77.4378 16.4227 77.4378 16.604C77.4378 16.86 77.3098 17.0787 77.0538 17.26C76.7978 17.4307 76.3818 17.516 75.8058 17.516H71.4378ZM85.1133 22.668C85.1133 21.132 85.3319 19.8467 85.7693 18.812C86.2066 17.7773 86.7773 16.9987 87.4813 16.476C88.1959 15.9533 88.9533 15.692 89.7533 15.692C90.7559 15.692 91.5239 15.98 92.0573 16.556C92.6013 17.1213 92.8733 17.932 92.8733 18.988C92.8733 19.9267 92.6759 20.6307 92.2813 21.1C91.8973 21.5587 91.3906 21.788 90.7613 21.788C90.1426 21.788 89.6679 21.6227 89.3373 21.292C89.0173 20.9507 88.8519 20.4813 88.8413 19.884V19.292C88.8413 18.9613 88.7666 18.716 88.6173 18.556C88.4679 18.3853 88.2279 18.3 87.8973 18.3C87.5133 18.3 87.1506 18.4547 86.8093 18.764C86.4679 19.0733 86.1906 19.548 85.9773 20.188C85.7639 20.8173 85.6573 21.6227 85.6573 22.604L85.1133 22.668ZM85.4173 16.716L85.6573 20.508V28.684C85.6573 28.972 85.7106 29.1853 85.8173 29.324C85.9346 29.4627 86.1479 29.5587 86.4573 29.612L87.8493 29.82C88.0733 29.8627 88.2386 29.9373 88.3453 30.044C88.4626 30.1507 88.5213 30.2947 88.5213 30.476C88.5213 30.6787 88.4519 30.8333 88.3133 30.94C88.1746 31.0467 87.9719 31.1 87.7053 31.1H80.2812C80.0039 31.1 79.7959 31.0467 79.6573 30.94C79.5293 30.8227 79.4653 30.6733 79.4653 30.492C79.4653 30.3427 79.5079 30.22 79.5933 30.124C79.6893 30.0173 79.8333 29.932 80.0253 29.868L80.6813 29.692C80.8626 29.6387 80.9959 29.5427 81.0813 29.404C81.1773 29.2547 81.2253 29.0253 81.2253 28.716V19.308C81.2253 19.0627 81.1826 18.8867 81.0973 18.78C81.0226 18.6627 80.8999 18.588 80.7293 18.556L79.8653 18.492C79.6839 18.46 79.5506 18.4013 79.4653 18.316C79.3906 18.22 79.3533 18.1027 79.3533 17.964C79.3533 17.804 79.4013 17.676 79.4973 17.58C79.6039 17.4733 79.7853 17.372 80.0413 17.276L83.1133 16.22C83.6039 16.028 83.9613 15.9053 84.1853 15.852C84.4093 15.7987 84.5853 15.772 84.7133 15.772C84.9266 15.772 85.0866 15.8467 85.1933 15.996C85.3106 16.1347 85.3853 16.3747 85.4173 16.716ZM104.081 29.116V28.812L103.793 28.764V19.132C103.793 18.3853 103.606 17.8093 103.233 17.404C102.859 16.988 102.331 16.78 101.649 16.78C101.009 16.78 100.518 16.9187 100.177 17.196C99.8352 17.4733 99.6645 17.804 99.6645 18.188V19.596C99.6645 20.2253 99.4512 20.716 99.0245 21.068C98.6085 21.42 98.0218 21.596 97.2645 21.596C96.6245 21.596 96.1392 21.4413 95.8085 21.132C95.4778 20.8227 95.3125 20.396 95.3125 19.852C95.3125 19.1907 95.5792 18.5453 96.1125 17.916C96.6565 17.276 97.4565 16.748 98.5125 16.332C99.5792 15.916 100.886 15.708 102.433 15.708C104.374 15.708 105.814 16.1027 106.753 16.892C107.702 17.6813 108.177 18.748 108.177 20.092V28.412C108.177 28.7213 108.241 28.9507 108.369 29.1C108.497 29.2493 108.667 29.324 108.881 29.324C109.115 29.324 109.291 29.2707 109.409 29.164C109.526 29.0467 109.627 28.924 109.713 28.796C109.766 28.732 109.819 28.6787 109.873 28.636C109.937 28.5827 110.011 28.556 110.097 28.556C110.225 28.556 110.315 28.604 110.369 28.7C110.422 28.7853 110.449 28.8973 110.449 29.036C110.449 29.3773 110.326 29.74 110.081 30.124C109.835 30.4973 109.467 30.8173 108.977 31.084C108.497 31.3507 107.889 31.484 107.153 31.484C106.203 31.484 105.451 31.276 104.897 30.86C104.353 30.4333 104.081 29.852 104.081 29.116ZM94.6245 27.772C94.6245 26.46 95.2058 25.3987 96.3685 24.588C97.5418 23.7773 99.1898 23.372 101.312 23.372C102.006 23.372 102.625 23.436 103.169 23.564C103.713 23.6813 104.187 23.836 104.593 24.028L104.273 24.972C103.899 24.8013 103.521 24.668 103.137 24.572C102.763 24.476 102.358 24.428 101.921 24.428C101.046 24.428 100.363 24.6573 99.8725 25.116C99.3818 25.5747 99.1365 26.2147 99.1365 27.036C99.1365 27.8467 99.3445 28.4707 99.7605 28.908C100.187 29.3347 100.737 29.548 101.409 29.548C101.963 29.548 102.502 29.42 103.025 29.164C103.547 28.908 103.985 28.5507 104.337 28.092L104.673 28.924C104.097 29.7453 103.323 30.38 102.352 30.828C101.382 31.2653 100.353 31.484 99.2645 31.484C97.8885 31.484 96.7685 31.1427 95.9045 30.46C95.0512 29.7773 94.6245 28.8813 94.6245 27.772Z" fill="#1A6A73"/>
</svg>
