<svg width="1859" height="719" viewBox="0 0 1859 719" fill="none" xmlns="http://www.w3.org/2000/svg">
<path d="M117.062 1H1V120.456M117.062 1V120.456M117.062 1H233.125M117.062 120.456H1M117.062 120.456V239.912M117.062 120.456H233.125M1 120.456V239.912M117.062 239.912H1M117.062 239.912V359.368M117.062 239.912H233.125M1 239.912V359.368M117.062 359.368H1M117.062 359.368V478.825M117.062 359.368H233.125M1 359.368V478.825M117.062 478.825H1M117.062 478.825V598.281M117.062 478.825H233.125M1 478.825V598.281M117.062 598.281H1M117.062 598.281V717.737M117.062 598.281H233.125M1 598.281V717.737H117.062M117.062 717.737H233.125M233.125 1V120.456M233.125 1H349.187M233.125 120.456V239.912M233.125 120.456H349.187M233.125 239.912V359.368M233.125 239.912H349.187M233.125 359.368V478.825M233.125 359.368H349.187M233.125 478.825V598.281M233.125 478.825H349.187M233.125 598.281V717.737M233.125 598.281H349.187M233.125 717.737H349.187M349.187 1V120.456M349.187 1H465.25M349.187 120.456V239.912M349.187 120.456H465.25M349.187 239.912V359.368M349.187 239.912H465.25M349.187 359.368V478.825M349.187 359.368H465.25M349.187 478.825V598.281M349.187 478.825H465.25M349.187 598.281V717.737M349.187 598.281H465.25M349.187 717.737H465.25M465.25 1V120.456M465.25 1H581.312M465.25 120.456V239.912M465.25 120.456H581.312M465.25 239.912V359.368M465.25 239.912H581.312M465.25 359.368V478.825M465.25 359.368H581.312M465.25 478.825V598.281M465.25 478.825H581.312M465.25 598.281V717.737M465.25 598.281H581.312M465.25 717.737H581.312M581.312 1V120.456M581.312 1H697.375M581.312 120.456V239.912M581.312 120.456H697.375M581.312 239.912V359.368M581.312 239.912H697.375M581.312 359.368V478.825M581.312 359.368H697.375M581.312 478.825V598.281M581.312 478.825H697.375M581.312 598.281V717.737M581.312 598.281H697.375M581.312 717.737H697.375M697.375 1V120.456M697.375 1H813.437M697.375 120.456V239.912M697.375 120.456H813.437M697.375 239.912V359.368M697.375 239.912H813.437M697.375 359.368V478.825M697.375 359.368H813.437M697.375 478.825V598.281M697.375 478.825H813.437M697.375 598.281V717.737M697.375 598.281H813.437M697.375 717.737H813.437M813.437 1V120.456M813.437 1H929.5M813.437 120.456V239.912M813.437 120.456H929.5M813.437 239.912V359.368M813.437 239.912H929.5M813.437 359.368V478.825M813.437 359.368H929.5M813.437 478.825V598.281M813.437 478.825H929.5M813.437 598.281V717.737M813.437 598.281H929.5M813.437 717.737H929.5M929.5 1V120.456M929.5 1H1045.56M929.5 120.456V239.912M929.5 120.456H1045.56M929.5 239.912V359.368M929.5 239.912H1045.56M929.5 359.368V478.825M929.5 359.368H1045.56M929.5 478.825V598.281M929.5 478.825H1045.56M929.5 598.281V717.737M929.5 598.281H1045.56M929.5 717.737H1045.56M1045.56 1V120.456M1045.56 1H1161.62M1045.56 120.456V239.912M1045.56 120.456H1161.62M1045.56 239.912V359.368M1045.56 239.912H1161.62M1045.56 359.368V478.825M1045.56 359.368H1161.62M1045.56 478.825V598.281M1045.56 478.825H1161.62M1045.56 598.281V717.737M1045.56 598.281H1161.62M1045.56 717.737H1161.62M1161.62 1V120.456M1161.62 1H1277.69M1161.62 120.456V239.912M1161.62 120.456H1277.69M1161.62 239.912V359.368M1161.62 239.912H1277.69M1161.62 359.368V478.825M1161.62 359.368H1277.69M1161.62 478.825V598.281M1161.62 478.825H1277.69M1161.62 598.281V717.737M1161.62 598.281H1277.69M1161.62 717.737H1277.69M1277.69 1V120.456M1277.69 1H1393.75M1277.69 120.456V239.912M1277.69 120.456H1393.75M1277.69 239.912V359.368M1277.69 239.912H1393.75M1277.69 359.368V478.825M1277.69 359.368H1393.75M1277.69 478.825V598.281M1277.69 478.825H1393.75M1277.69 598.281V717.737M1277.69 598.281H1393.75M1277.69 717.737H1393.75M1393.75 1V120.456M1393.75 1H1509.81M1393.75 120.456V239.912M1393.75 120.456H1509.81M1393.75 239.912V359.368M1393.75 239.912H1509.81M1393.75 359.368V478.825M1393.75 359.368H1509.81M1393.75 478.825V598.281M1393.75 478.825H1509.81M1393.75 598.281V717.737M1393.75 598.281H1509.81M1393.75 717.737H1509.81M1509.81 1V120.456M1509.81 1H1625.87M1509.81 120.456V239.912M1509.81 120.456H1625.87M1509.81 239.912V359.368M1509.81 239.912H1625.87M1509.81 359.368V478.825M1509.81 359.368H1625.87M1509.81 478.825V598.281M1509.81 478.825H1625.87M1509.81 598.281V717.737M1509.81 598.281H1625.87M1509.81 717.737H1625.87M1625.87 1V120.456M1625.87 1H1741.94M1625.87 120.456V239.912M1625.87 120.456H1741.94M1625.87 239.912V359.368M1625.87 239.912H1741.94M1625.87 359.368V478.825M1625.87 359.368H1741.94M1625.87 478.825V598.281M1625.87 478.825H1741.94M1625.87 598.281V717.737M1625.87 598.281H1741.94M1625.87 717.737H1741.94M1741.94 1V120.456M1741.94 1H1858V120.456M1741.94 120.456V239.912M1741.94 120.456H1858M1741.94 239.912V359.368M1741.94 239.912H1858M1741.94 359.368V478.825M1741.94 359.368H1858M1741.94 478.825V598.281M1741.94 478.825H1858M1741.94 598.281V717.737M1741.94 598.281H1858M1741.94 717.737H1858V598.281M1858 120.456V239.912M1858 239.912V359.368M1858 359.368V478.825M1858 478.825V598.281" stroke="url(#paint0_radial_4119_3206)" stroke-width="1.62895"/>
<defs>
<radialGradient id="paint0_radial_4119_3206" cx="0" cy="0" r="1" gradientUnits="userSpaceOnUse" gradientTransform="translate(929.5 359.368) rotate(90) scale(358.368 928.5)">
<stop stop-color="#CFD1D3"/>
<stop offset="1" stop-color="#CFD1D3" stop-opacity="0"/>
</radialGradient>
</defs>
</svg>
