<svg width="49" height="49" viewBox="0 0 49 49" fill="none" xmlns="http://www.w3.org/2000/svg">
<rect x="0.5" y="0.199951" width="48" height="48" rx="24" fill="#FEF3EB"/>
<path fill-rule="evenodd" clip-rule="evenodd" d="M24.5016 15.2C20.9472 15.2 18.1016 18.0943 18.1016 21.6614V23.3433C17.5898 24.3283 17.3008 25.4465 17.3008 26.632C17.3008 30.5908 20.5243 33.8001 24.5008 33.8001C28.4772 33.8001 31.7008 30.5908 31.7008 26.632C31.7008 25.4477 31.4123 24.3306 30.9016 23.3463V21.6614C30.9016 18.0943 28.0559 15.2 24.5016 15.2ZM28.8405 20.9118C28.4907 18.7912 26.68 17.2 24.5016 17.2C22.3236 17.2 20.5132 18.7905 20.1628 20.9104C21.3693 20.0024 22.8718 19.4639 24.5008 19.4639C26.1305 19.4639 27.6338 20.0029 28.8405 20.9118ZM24.502 24.7C25.0542 24.7 25.502 25.1477 25.502 25.7V28.1C25.502 28.6522 25.0542 29.1 24.502 29.1C23.9497 29.1 23.502 28.6522 23.502 28.1V25.7C23.502 25.1477 23.9497 24.7 24.502 24.7Z" fill="#C2540A"/>
</svg>
