<svg width="49" height="49" viewBox="0 0 49 49" fill="none" xmlns="http://www.w3.org/2000/svg">
<rect x="0.5" y="0.199951" width="48" height="48" rx="24" fill="#EFFAF6"/>
<path d="M21.8333 22.8666C23.6743 22.8666 25.1667 21.3742 25.1667 19.5333C25.1667 17.6923 23.6743 16.2 21.8333 16.2C19.9924 16.2 18.5 17.6923 18.5 19.5333C18.5 21.3742 19.9924 22.8666 21.8333 22.8666Z" fill="#2D9F75"/>
<path d="M31.1667 20.8666C31.1667 21.9712 30.2712 22.8666 29.1667 22.8666C28.0621 22.8666 27.1667 21.9712 27.1667 20.8666C27.1667 19.762 28.0621 18.8666 29.1667 18.8666C30.2712 18.8666 31.1667 19.762 31.1667 20.8666Z" fill="#2D9F75"/>
<path d="M30.0001 29.9383C29.867 30.3243 30.1459 30.7722 30.5486 30.7045C32.8229 30.3226 33.8333 29.0295 33.8333 27.493C33.8333 25.656 31.6995 24.1669 29.0674 24.1669C28.6805 24.1669 28.3043 24.199 27.9442 24.2598C27.8437 24.2767 27.8212 24.4091 27.907 24.4641C29.1573 25.2669 30.2589 26.5883 30.2589 28.3529C30.2589 28.9102 30.1709 29.4425 30.0001 29.9383Z" fill="#2D9F75"/>
<path d="M21.9545 32.503C26.6855 32.503 28.7424 30.6433 28.7424 28.3494C28.7424 26.0554 25.7034 24.1957 21.9545 24.1957C18.2057 24.1957 15.1667 26.0554 15.1667 28.3494C15.1667 30.6433 17.2236 32.503 21.9545 32.503Z" fill="#2D9F75"/>
</svg>
