<svg width="62" height="63" viewBox="0 0 62 63" fill="none" xmlns="http://www.w3.org/2000/svg">
<rect x="4" y="4.58997" width="54" height="54" rx="27" stroke="#D0ECD1" stroke-width="8"/>
<g clip-path="url(#clip0_4003_2817)">
<path d="M54.8373 31.5086C54.8373 18.2987 44.1285 7.58997 30.9186 7.58997C17.7087 7.58997 7 18.2987 7 31.5086C7 44.7185 17.7087 55.4272 30.9186 55.4272C44.1285 55.4272 54.8373 44.7185 54.8373 31.5086Z" fill="#1A6A73"/>
<path d="M33.9607 25.056C32.9945 23.1237 32.5115 22.1576 31.8797 21.8389C31.2748 21.5337 30.5609 21.5337 29.956 21.8389C29.3242 22.1576 28.8411 23.1237 27.8749 25.056C27.6128 25.5804 27.4817 25.8426 27.303 26.0476C27.0726 26.3118 26.7809 26.5151 26.4534 26.6399C26.1993 26.7368 25.9132 26.7686 25.3412 26.8321C23.3491 27.0535 22.3529 27.1641 21.862 27.5694C21.2284 28.0925 20.9511 28.9326 21.1487 29.7301C21.3019 30.3481 22.0475 31.0403 23.5385 32.4249C24.003 32.8563 24.2353 33.0719 24.387 33.3174C24.622 33.6974 24.7318 34.1415 24.7011 34.5872C24.6813 34.8752 24.5779 35.1698 24.3711 35.7591C23.6991 37.6744 23.3631 38.6321 23.4897 39.2205C23.6871 40.1376 24.4598 40.8185 25.3945 40.8989C25.9942 40.9505 26.902 40.4966 28.7174 39.5889L29.3897 39.2527C29.95 38.9725 30.2302 38.8325 30.524 38.7774C30.7843 38.7285 31.0514 38.7285 31.3116 38.7774C31.6055 38.8325 31.8857 38.9725 32.446 39.2527L33.1182 39.5889C34.9337 40.4966 35.8414 40.9505 36.4412 40.8989C37.3758 40.8185 38.1485 40.1375 38.3459 39.2205C38.4726 38.6321 38.1366 37.6744 37.4646 35.7591C37.2578 35.1698 37.1544 34.8752 37.1345 34.5872C37.1038 34.1415 37.2137 33.6974 37.4486 33.3174C37.6004 33.0719 37.8326 32.8563 38.2972 32.4249C39.7883 31.0403 40.5338 30.3481 40.6869 29.7301C40.8846 28.9326 40.6073 28.0925 39.9737 27.5694C39.4827 27.1641 38.4866 27.0535 36.4944 26.8321C35.9224 26.7686 35.6363 26.7368 35.3822 26.6399C35.0547 26.5151 34.763 26.3118 34.5327 26.0476C34.354 25.8426 34.2229 25.5804 33.9607 25.056Z" fill="white"/>
</g>
<defs>
<clipPath id="clip0_4003_2817">
<rect width="48" height="48" fill="white" transform="translate(7 7.58997)"/>
</clipPath>
</defs>
</svg>
