<svg width="15" height="15" viewBox="0 0 15 15" fill="none" xmlns="http://www.w3.org/2000/svg">
<g clip-path="url(#clip0_2007_10360)">
<path d="M10.4593 0.840332H8.09969V10.3767C8.09969 11.513 7.19202 12.4463 6.06269 12.4463C4.93335 12.4463 4.02627 11.513 4.02627 10.3767C4.02627 9.26075 4.91294 8.34783 6.0026 8.307V5.913C3.60277 5.95383 1.66669 7.92141 1.66669 10.3767C1.66669 12.8512 3.64302 14.8403 6.08252 14.8403C8.52319 14.8403 10.4995 12.8313 10.4995 10.3767V5.48658C11.4077 6.15197 12.4993 6.52052 13.625 6.54183V4.14783C11.8505 4.08658 10.4593 2.62533 10.4593 0.840332Z" fill="white"/>
</g>
<defs>
<clipPath id="clip0_2007_10360">
<rect width="14" height="14" fill="white" transform="translate(0.5 0.840332)"/>
</clipPath>
</defs>
</svg>
