<svg width="15" height="15" viewBox="0 0 15 15" fill="none" xmlns="http://www.w3.org/2000/svg">
<g clip-path="url(#clip0_2007_10347)">
<path fill-rule="evenodd" clip-rule="evenodd" d="M13.0755 4.5766C13.0755 8.37119 10.1862 12.7479 4.90417 12.7479C3.34281 12.7487 1.81412 12.3008 0.5 11.4576C1.25233 11.5494 2.01539 11.4917 2.74535 11.2877C3.47532 11.0838 4.15782 10.7377 4.75367 10.2694C4.1545 10.2572 3.57407 10.0583 3.09335 9.7005C2.61264 9.34266 2.25561 8.84368 2.07208 8.27319C2.50199 8.35643 2.94528 8.33966 3.36767 8.22419C2.71738 8.09319 2.13251 7.74106 1.71246 7.22764C1.29242 6.71423 1.06311 6.0712 1.0635 5.40785V5.37227C1.46257 5.59313 1.90845 5.71589 2.36433 5.73044C1.75707 5.32403 1.32727 4.7017 1.16226 3.98987C0.997252 3.27803 1.1094 2.53008 1.47592 1.89794C2.19735 2.78442 3.09702 3.50942 4.11659 4.02595C5.13617 4.54247 6.2529 4.83898 7.39442 4.89627C7.25178 4.28039 7.31606 3.63467 7.57731 3.05899C7.83856 2.48331 8.28222 2.00976 8.83966 1.71158C9.3971 1.4134 10.0373 1.30721 10.6611 1.40943C11.285 1.51166 11.8578 1.81661 12.2909 2.2771C12.9339 2.15012 13.5505 1.91459 14.1144 1.5806C13.8995 2.24544 13.4508 2.80978 12.8515 3.16902C13.4207 3.10279 13.9765 2.95056 14.5 2.71752C14.1147 3.29462 13.6296 3.79834 13.0673 4.20502C13.0732 4.32752 13.0755 4.45352 13.0755 4.5766Z" fill="white"/>
</g>
<defs>
<clipPath id="clip0_2007_10347">
<rect width="14" height="14" fill="white" transform="translate(0.5 0.0605469)"/>
</clipPath>
</defs>
</svg>
